<svg xmlns="http://www.w3.org/2000/svg" id="mapSVG" version="1.2" baseProfile="tiny" viewBox="103 80 112 65" stroke-linecap="round" stroke-linejoin="round" stroke-width="1" stroke="#000" fill="#fff"><g id="ne_50m_admin_1_states_provinces_lakes"><path onclick="clickstate('stateAL')" id="stateAL" d="M175.31 127.83l-.04.03-.21.25-.74.08.04-.06.16-.01.22-.08-.05-.13-.08-.15-.08-.01-.05-.09v-.27l-.05-.15-.12-.17-.04.03-.09.28-.07.36-.04.12-.22.01-.19-.03-.1.01-.02-.49-.02-.45-.02-.46-.02-.45-.02-.45-.02-.45-.02-.45-.02-.45.04-.45.05-.44.05-.45.05-.44.04-.44.05-.45.05-.44.04-.45.05-.44.05-.45.04-.44.05-.44.05-.45.04-.44.05-.45.05-.44.01-.11v-.04l.01-.06-.17-.16-.03-.03-.03-.03H174.28l.3.01h.62l.31.01h.62l.31.01h.61l.31.01h.31l.31.01h.62l.3.01.06.3.05.31.05.31.05.31.05.3.05.31.05.31.05.3.05.31.05.31.05.31.05.3.06.31.05.31.05.31.05.3.05.14.03.23.28.67.07.28-.02.12.04.09.09.09-.02.09-.12.11-.08.13-.06.23-.11.41-.01.25.12.34.02.15-.07.67.05.43.11.27-.62.01h-4.36l-.02.17.01.16.07.16.28.3.02.07-.05.23.01.16-.03.09-.07.07-.02.08z"/><path onclick="clickstate('stateAR')" id="stateAR" d="M171.05 114.31l-.01.04.04.1v.05l-.03.04-.06.02-.05.02-.01.04v.07l.01.04-.03.05-.22.13-.1.17.04.22-.08.21-.19.21-.08.24.03.27-.1.21-.22.17-.07.1v.08l.02.06-.07.11-.19.12-.09.11-.02.11-.04.05-.08.02-.05.16-.04.38-.1.22-.16.05-.08.09-.01.11-.1.14-.18.15-.05.14.06.14-.02.06-.05.04-.19.07-.04.03-.01.04.03.07.03.1-.03.18-.05.07-.04.07-.16.13-.05.09.07.07v.08l-.08.08.02.08.02.06.07.06.03.14-.05.19.01.16.09.13.02.05-.09.43v.06H165.82l-.35.01h-2.76v-.33l-.01-.32v-.66l-.1-.05-.18-.03-.09.02-.11-.01-.07.05-.05.01-.04-.01-.02-.05-.08-.03-.1-.12v-.26l.01-.26v-.27l.01-.26v-.26l.01-.26.01-.26v-.26l.01-.26v-.26l.01-.27v-.26l.01-.26v-.26l.01-.26v-.26l-.04-.34-.04-.33-.05-.34-.04-.33-.04-.34-.04-.33-.05-.34-.04-.33h8.57l.09.19.08.12.02.09-.02.09-.14.19-.13.09-.07.1-.1.09-.15.26h.32l.31-.01.32-.01h.35z"/><path onclick="clickstate('stateAZ')" id="stateAZ" d="M133.84 125.55H132.04l-.68.01H130l-.91-.36-.91-.35-.92-.36-.91-.36-.91-.35-.91-.36-.92-.35-.91-.36.09-.14.12-.36.01-.02.27-.02.13-.1.07-.16.02-.17-.05-.17-.11-.13-.19-.08-.11-.24-.02-.39.03-.21.1-.03.09-.09.09-.16.07-.17.04-.19.01-.24-.03-.29.17-.35.18-.22.31-.27.08-.08V118.36l-.07-.09-.28-.19-.12-.13-.02-.12v-.01l-.04-.11-.3-.5-.11-.27v-.22l.04-.85-.11-.3-.02-.16.03-.21-.01-.13-.05-.11-.02-.2v-.25l-.09-.16-.02-.07.05-.17.09-.09.15-.06.17-.02.19.02.14.07.1.14.09.07h.1l.12-.11.11-.24.04-.01v-1.98H132.04l.6.01h1.2V125.55z"/><path onclick="clickstate('stateCA')" id="stateCA" d="M123.13 116.74v.2l.11.27.3.5.04.11v.01l.02.12.12.13.28.19.07.09V118.43l-.08.08-.31.27-.18.22-.17.35.03.29-.01.24-.04.19-.07.17-.09.16-.09.09-.1.03-.03.21.02.39.11.24.19.08.11.13.05.17-.02.17-.07.16-.13.1-.27.02-.01.02-.22.03-.55.05-.55.05-.55.05-.55.05-.55.06-.55.05-.55.05-.55.05v-.01l-.02-.27-.09-.09-.11.06-.05-.35.03-.16-.02-.15-.11-.39-.28-.47-.62-.59-.31-.19-.25-.25-.16-.07-.2-.02-.05.12-.23-.08.04-.28-.22-.38-.18-.04-.45.02-.6-.21-.17-.12-.07-.23-.28-.19-.37-.19-.2.04-.27-.03-.39-.14-.22-.01-.44.04-.16-.03-.15-.17-.17-.09.04-.22-.02-.19.02-.15-.07-.33.06-.31-.05-.11-.1-.08-.28-.13-.06-.15.05-.22-.08-.14-.23-.14-.22-.3-.28-.17-.12-.28-.17-.17-.06-.15-.39-.55-.41-.42-.06-.25-.02-.33.16-.21.09-.18-.01-.16-.02-.12-.14-.21-.55-.13-.44-.52-.03-.4-.17-.41-.01-.26-.02-.29.13-.06.12.02-.01.12.04.2.13.15.14.07.12.15.09.05.09.01-.05-.1-.05-.06-.07-.2-.12-.25-.14-.14-.07-.26-.07-.06-.03-.09.13-.11.19-.08.25-.03.71.04.15-.06.13.02.09-.01-.19-.07-.11.02-.13-.01-.25.01-.11-.03-.11-.08h-.07l-.24.14-.1-.02-.25-.15-.11-.02-.17.08-.02.37.05.28-.11.03-.12-.11-.18-.07-.16-.11-.21-.19-.12-.07-.12.16-.01-.07.06-.19-.01-.31.19.25-.06-.18-.15-.19-.12-.07-.14-.35-.32-.21-.26-.33-.54-.56-.03-.49-.19-.62.08-.35-.01-.25-.1-.38-.1-.2-.43-.56-.41-.38-.07-.29-.03-.29.1-.26.07-.27.06-.07.02.03-.01.06.06.02.02-.12.03-.06-.06-.01.01-.04.03-.07.13-.36-.01-.45.14-.55-.01-.18-.09-.39-.08-.23-.16-.17.07-.24-.01-.23-.03-.04H112.76V105.74l.01.46v.9l.45.39.45.39.45.4.45.39.45.39.45.4.45.39.45.39.35.33.36.34.35.33.35.33.35.33.36.33.35.33.35.33.49.48.49.48.49.47.49.48.48.48.49.47.49.48.52.51z"/><path onclick="clickstate('stateCO')" id="stateCO" d="M133.84 111.91V102.29H147.35V106.04l.01.45V109.2l.01.45V111.91H133.84z"/><path onclick="clickstate('stateCT')" id="stateCT" d="M205.5 99.85v.63l.01.2v.36l-.01.1-.01.15-.05.05-.02.14-.17-.01-.28.03-.36.09-.21-.05-.21.09-.7.02-.15-.05-.19.17-.31.1-.77.37-.09.07-.1-.15-.08-.12.16-.1.12-.07.11-.06.07-.05-.06-.09-.06-.09.02-.23.02-.23.01-.23.02-.23.01-.23.02-.22.01-.23.02-.23.16.01h.16l.16.01.17.01h.16l.16.01.16.01h.16v.06h.09l.01-.06h.23l.23.01h.23l.23.01h.46l.23.01h.23v.02z"/><path onclick="clickstate('stateDE')" id="stateDE" d="M199.27 108.41h-1.29l-.01-.38-.02-.38-.02-.38-.02-.38-.02-.39-.02-.38-.02-.38-.02-.38.15-.19.06-.06.08-.03.24-.01.17.07-.08.08-.07.15-.17.19.02.12.02.09-.01.18.1.18.21.29.04.46.16.3.24.35.18.1.01.14-.08.21-.12.1.15-.02.07.05.08.18-.01.12z"/><path onclick="clickstate('stateFL')" id="stateFL" d="M175.31 127.83l.02-.08.07-.07.03-.09-.01-.16.05-.23-.02-.07-.28-.3-.07-.16-.01-.16.02-.17h4.36l.62-.01.08.19.15.4.01.09.18.01.3.03.31.02.31.02.3.02.31.03.31.02.3.02.31.02.31.03.31.02.3.02.31.02.31.03.3.02.31.02.31.02v.08l.05.13.01.14.02.07.06.04.1.01.1-.08.06-.18.01-.19-.03-.23v-.19l.05-.11.06-.03.05-.06.04-.01.11.03.4.16.32.02.09.22.14.89.09.31.17.84.28.81.39.98.65 1.19.08.16-.09.15-.02.15-.01.22.02.22.08.26.15.41-.09-.08-.21-.58-.02-.35.03-.48-.05.01-.04.16-.03.18-.05.07-.07-.28v-.13l.08-.15-.02-.05-.13-.08-.03-.12.02-.12-.07-.06h-.06l.04.29.06.18.07.44.12.26.07.22.82 2.34.19.3.07.21.08.45.02.58-.14 1.05-.03.71-.02-.02-.01-.07-.03-.01-.12.32-.15.3-.06.46-.07.23-.23.25-.14-.01-.34.18-.24-.05-.29.11-.19-.01-.11-.22.02-.1.04-.1.07-.02.26.23.05-.1-.08-.11-.15-.07-.11-.07-.22-.51-.22-.36-.04-.24-.39-.15-.29-.22-.18-.39-.11-.69-.12-.08-.05-.06.12-.25.13-.22-.11.05-.07.08-.1.2-.07.02-.06-.02-.07-.37.02-.45.1-.17h-.16l-.16.06.02.15-.02.08-.12-.02-.09-.05-.12-.16-.17-.3-.35-.82-.06-.11-.12-.12.06-.04.09-.02.22-.37.18-.23.06-.15-.01-.07-.08-.09-.1.08-.04-.02-.12-.2-.11-.05-.07.04.08.16.07.06-.03.23-.03.07-.06.07-.11-.04-.05.06-.06-.06-.07-.1-.07-.17.19-.94.17-.6.01-.68.02-.1-.02-.18-.22-.4-1.01-.96-.77-1.14-.68-.43-.51.1-.09.08-.03.12.03.12-.05.06-.13-.01-.19.03-.48.3-.17-.01-.16.08-.11.05-.3.04-.26.06-.11-.03-.07-.18v-.18l.06.14.09.11.04-.05.01-.09-.09-.19-.29-.24-.33-.35.11.01.02-.07-.1-.1.04-.12.07-.12-.14.02-.12.09v.1l-.03.08-.07-.01-.12-.1-.62-.29-.53-.16.41-.07.22.06-.02-.09-.06-.05-.17-.07-.23.02-.14-.03-.15.07-.16.1-.14.05-.55.08-.45.08.07-.09.08-.05.26-.08.04-.17-.06-.17-.07.04-.07.13-.09-.09h-.1l-.03.2-.13.14-.05.14-.38.11-.05-.04.11-.13-.01-.07-.08.03z"/><path onclick="clickstate('stateGA')" id="stateGA" d="M180.09 126.33l-.11-.27-.05-.43.07-.67-.02-.15-.12-.34.01-.25.11-.41.06-.23.08-.13.12-.11.02-.09-.09-.09-.04-.09.02-.12-.07-.28-.28-.67-.03-.23-.05-.14-.05-.3-.05-.31-.05-.31-.06-.31-.05-.3-.05-.31-.05-.31-.05-.31-.05-.3-.05-.31-.05-.31-.05-.3-.05-.31-.05-.31-.05-.31-.06-.3h.63l.62.01.63.01.62.01.59-.01.58-.01.58-.01.58-.01-.01.01-.1.16-.28.31-.07.23.36.26.22.21.15.09.15.02.1.07.05.17.44.84.46.43.18.22.1.2.39.34.13.18.01.14.04.1.09.06.08.12.08.19.16.16.23.14.17.32.11.5.11.29.16.12.23.43.07.25v.23l.12.17.39.19-.1.21-.24.12h-.07l-.06.04.04.09.06.06-.01.06-.06.09-.12.02-.07.09.02.09.04.05-.01.09-.14.09-.03.08.07.03.05-.03.04.02-.08.14-.08.09-.07.16-.16.04v.05l.1.04.08.12-.15.22-.09-.01-.06-.05-.03.17.01.1-.04.19-.05.23-.04.09.01.17.02.17-.32-.02-.4-.16-.11-.03-.04.01-.05.06-.06.03-.05.11v.19l.03.23-.01.19-.06.18-.1.08-.1-.01-.06-.04-.02-.07-.01-.14-.05-.13v-.08l-.31-.02-.31-.02-.3-.02-.31-.03-.31-.02-.3-.02-.31-.02-.31-.03-.31-.02-.3-.02-.31-.02-.31-.03-.3-.02-.31-.02-.31-.02-.3-.03-.18-.01-.01-.09-.15-.4-.08-.19z"/><path onclick="clickstate('stateIA')" id="stateIA" d="M167.71 103.78l-.17-.13-.03-.09-.14-.09-.02-.05-.1-.05-.1-.18h-.48l-.49.01h-.97l-.48.01h-.49l-.48.01h-.97l-.49.01h-.97l-.49.01h-.97l-.48.01-.11-.18-.07-.17.04-.08.01-.27-.02-.45-.05-.26-.07-.06-.01-.08.05-.1-.01-.07-.09-.04-.02-.09.03-.13-.02-.09-.07-.03-.03-.05.01-.06-.04-.05-.09-.01-.04-.16.02-.3-.04-.21-.08-.12-.04-.12-.01-.1-.09-.17-.18-.24-.11-.3-.06-.38-.13-.21-.05-.02-.05-.19-.06-.09-.01-.07-.16-.17-.01-.07.03-.08.1-.16.09-.27.02-.18.08-.13v-.07l-.01-.1-.04-.09-.13-.06-.01-.03-.02-.09.06-.06.01-.07-.01-.09-.08-.15-.03-.15.28-.01h10.02l.01.15.04.11.08.09.12.06.02.13-.08.19-.03.23.03.28.05.25.1.23.21.16.33.11.19.16.06.21.01.02.12.16.2.15.12.14.03.13.12.14.22.14.12.13.04.11-.01.18-.04.23-.08.17-.12.11-.08.14-.05.19-.18.17-.28.16-.33.11-.35.05-.21.14-.07.21.03.18.13.15.07.15.02.16-.09.27-.2.37-.21.24-.24.11-.11.16.03.22-.02.12-.1.04z"/><path onclick="clickstate('stateID')" id="stateID" d="M118.46 83.07h1.91V85.44l.2.24.16.15.09.16.15.17.03.06.06.18-.04.13.08.13-.02.07-.06.03-.01.01v.01l.02.03.21.12.21.18.26.12.09.07.34.36.18.22.19.16.09.19.2.17.05.08.01.02h.02l.12-.04.04.01.06.07.01.09.04.05.08.02.08.01.27-.05h.05l.03.02.01.05v.09l-.03.12-.08.12.02.11-.06.27-.07.17v.17l-.07.1.04.12-.03.18.02.04.1.09.04.22-.02.04-.17.08-.06.06-.02.08.08.23-.08.13v.11l.01.02.16.06.18.13.07.03h.04l.08-.05.08-.09.18-.08.22-.2.01-.05.01-.03h.03l.07.03.13.11.12.07.02.01.01.04-.01.11.07.09.02.15.06.15.05.18.18.23.09.16.1.08.07.08.04.11.02.08-.06.16.02.06.05.07.18.16.04.01.16-.01.09.02.09.08.09.12.06.12.02.15.09.16.01.14.06.06.12.08.1.06h.05l.03-.02.01-.08.04-.06.14-.08h.13l.49.07.03-.01.03-.02.08-.13.07-.05.1-.02.3.04.35-.02.19.04.26-.05.31.03.04-.02.01-.02-.03-.05v-.1l.06-.11.02-.1.06-.05.08-.03h.07l.07.05.07.09.13.23.07.09.09.07.12.06v6.01H118.51l-.01-.53v-3.83l.12-.36.03-.18-.04-.1.02-.09.08-.1v-.1l-.08-.11-.15-.07-.21-.03-.11-.13-.01-.23.16-.34.33-.46.17-.32.04-.2.19-.44.36-.69.14-.44-.08-.2-.19-.18-.28-.18-.2-.21-.05-.1-.07-.13-.03-.17.05-.09-.04-.16-.13-.24-.06-.16.01-.06.02-.02v-.77l-.01-.39v-1.92l-.01-.39v-2.31l-.01-.38z"/><path onclick="clickstate('stateIL')" id="stateIL" d="M167.71 103.78l.1-.04.02-.12-.03-.22.11-.16.24-.11.21-.24.2-.37.09-.27-.02-.16-.07-.15-.13-.15-.03-.18.07-.21.21-.14.35-.05.33-.11.28-.16.18-.17.05-.19.08-.14.12-.11.08-.17.04-.23.01-.18-.04-.11-.12-.13-.22-.14-.12-.14-.03-.13-.12-.14-.2-.15-.12-.16.89.01h.86l.87.01h.87l.86.01.87.01h.24v.37l.03.32.06.13.07.11.07.06.08.2.1.34.09.23.06.09v2.08l-.01.72v1.44l-.01.73V106.2l-.09.07-.06.13.02.14-.03.09-.06.06.03.15.12.24.08.24.02.23-.02.17-.11.15-.1.33-.08.13-.11.04-.09.13-.08.2-.09.09h-.1l-.06.03-.05.08.01.09.05.09-.02.08-.09.07v.04l.03.02-.01.03-.06.04-.03.11v.19l-.03.09h-.06l-.01.05.1.21-.06.04-.11.18-.02.19.07.2-.16.17-.39.13-.2.11-.02.1.02.15.08.2.01.14-.04.08-.28-.06-.5-.18-.33.01-.17.19-.06.15.02.12-.13-.15-.1-.06h-.01l-.02.02-.01.04v.04l.02.03-.01.03h-.02l-.1-.06-.12-.16-.14-.26-.03-.21.08-.16v-.17l-.08-.17-.04-.17v-.16l-.19-.25-.38-.33-.29-.2-.18-.08-.21-.16-.24-.26-.13-.19-.01-.13.11-.36.31-.77.04-.1.01-.03-.01-.03-.03-.03-.14-.1-.26-.07-.23-.05-.2.1-.16-.19-.14-.47-.35-.49-.56-.52-.33-.35-.09-.19-.08-.28-.06-.37v-.31l.11-.37z"/><path onclick="clickstate('stateIN')" id="stateIN" d="M174.25 110.01l-.1-.21.01-.05h.06l.03-.09v-.19l.03-.11.06-.04.01-.03-.03-.02v-.04l.09-.07.02-.08-.05-.09-.01-.09.05-.08.06-.03h.1l.09-.09.08-.2.09-.13.11-.04.08-.13.1-.33.11-.15.02-.17-.02-.23-.08-.24-.12-.24-.03-.15.06-.06.03-.09-.02-.14.06-.13.09-.07V105.51l.01-.73v-1.44l.01-.72v-2.08l.02.02.07.06.06.03.04.01.02.05.11.03.2.01.18-.02.17-.05.4-.22h3.98v.14l-.01.78-.01.79v.78l-.01.78-.01.78v.79l-.01.78v.8l-.03.02-.05.1.05.11v.08l-.05.07.02.05.09.03.03.07-.02.12-.2.12-.37.14-.08.04-.06.01h-.03l-.05-.03-.07-.06-.12-.02-.19.02-.07.11.04.21-.07.16-.17.11-.12.15-.07.18-.11.11-.16.04-.13.17-.1.29-.1.19-.12.07-.16-.02-.2-.1-.11-.12-.04-.11-.05-.08-.06-.04h-.03l-.01.02.02.03-.02.04-.13.01-.05.04.02.09-.03.05-.07.04-.04.08v.12l-.05.11-.1.1-.14-.03-.19-.17-.19-.04-.19.09-.15.13-.09.15-.09.04-.14-.12-.31-.16-.16-.04-.12.04-.08-.02-.03-.04-.02-.02-.03.02v.15l-.03.09-.05.03-.04-.03-.03-.09-.07-.04-.1.04-.11-.02-.1-.05h-.03l-.03.03.01.11-.02.09-.05.06-.07.01-.09-.03-.04.03z"/><path onclick="clickstate('stateKS')" id="stateKS" d="M147.37 111.91V109.65l-.01-.45v-2.71l-.01-.45v-1.35H160.2l.44.31h.12l.14-.04.1.07.07.19-.01.1h-.09l-.11.12-.14.22.03.21.21.2.13.2.07.21.13.15.3.17v2.91l.01.32V111.91H147.37z"/><path onclick="clickstate('stateKY')" id="stateKY" d="M172.11 111.93l-.02-.12.06-.15.17-.19.33-.01.5.18.28.06.04-.08-.01-.14-.08-.2-.02-.15.02-.1.2-.11.39-.13.16-.17-.07-.2.02-.19.11-.18.06-.04.04-.03.09.03.07-.01.05-.06.02-.09-.01-.11.03-.03h.03l.1.05.11.02.1-.04.07.04.03.09.04.03.05-.03.03-.09v-.15l.03-.02.02.02.03.04.08.02.12-.04.16.04.31.16.14.12.09-.04.09-.15.15-.13.19-.09.19.04.19.17.14.03.1-.1.05-.11v-.12l.04-.08.07-.04.03-.05-.02-.09.05-.04.13-.01.02-.04-.02-.03.01-.02h.03l.06.04.05.08.04.11.11.12.2.1.16.02.12-.07.1-.19.1-.29.13-.17.16-.04.11-.11.07-.18.12-.15.17-.11.07-.16-.04-.21.07-.11.19-.02.12.02.07.06.05.03h.03l.06-.01.08-.04.37-.14.2-.12.02-.12-.03-.07-.09-.03-.02-.05.05-.07v-.08l-.05-.11.05-.1.03-.02.11-.08.11-.01.09.08.12.02.17-.04.15.03.14.1.13.18.12.26.22.16.32.06.23.1.15.15.12.05.14-.08.15-.04.15.05.2.12.29-.02.39-.18.23.01.07.19.17.21.26.22.02.01.04.06.02.36-.01.07-.07.15.01.07.05.12.21.28.02.11.08.11.07.16.22.34.34.28.26.07-.72.58-.34.22-.31.17-.03.02-.07.19-.19.17-.12.17-.29.15-.21.2-.51.2-.29.06-.19.12h-.02l-.01.01h-.02l-.01.01-.02.01h-.01l-.02.01h-.01l-.67-.02-.67-.02-.67-.03-.66-.02-.67-.03-.67-.02-.67-.02-.67-.03-.64.02-.64.01-.64.01-.64.01-.05-.07-.17-.02-.26-.02h-.01l.07.24.01.22h-2.69l.1-.21.09-.06.04-.01.1.04.05.01.1-.07.09-.22.05-.23.01-.24-.06-.19z"/><path onclick="clickstate('stateLA')" id="stateLA" d="M162.71 121.5h2.76l.35-.01H168.27l.01.12.1.07v.12l-.08.19v.13l.08.07v.07l-.09.08-.02.09.07.09.03.11-.01.12.09.16.13.11.09.12.01.06v.07l-.02.09-.11.13-.08.09-.05.04-.03.06-.01.14-.12.18-.25.21-.17.27-.08.32-.08.2-.09.09-.05.17v.25l-.05.14-.12.02-.02.14.06.26-.02.11-.08.09-.01.06.46.01h3.23l-.05.27-.14.38v.09l.03.12v.07l.05.1.11.11.1.15.09.27.02.13.07.18.04.03.05.02.05.02-.13.06-.71-.24-.17-.2-.16-.04-.19-.03-.2.25-.16.33.25.18.21.08.35-.07.19-.16.16.01.07-.04.07-.08.13.07.01.06-.1.09-.12.08-.07.1.14.18.21.06.08-.02.05-.21.14-.14.18.03-.03.09.03.08.08.13-.01.2.02.05-.2.08-.14.03-.12.11.06.07-.12.06-.08-.03-.04.03-.01.06-.06.07.09.19.18.13.13.16.52.21.12-.01.12.21.1.07.1.04-.01.14-.17.11-.05.13-.04.07-.08-.09-.08-.07-.18.2-.08.04.04-.21-.07-.08-.1-.22-.16-.13-.1-.05-.08-.08-.1-.03-.09.01-.15-.05-.01-.12-.04-.08-.11-.1-.54-.19v.08l.03.05.08.04.09.08v.23l-.04.09-.01.14-.04.14-.07.11-.14.08-.07-.07-.11-.3-.14-.09-.24-.01-.16.07-.18.29-.14.04-.48-.15-.56-.23.02-.07.08-.03.17.03-.01-.08-.17-.25-.03-.12.02-.14h-.05l-.11.12-.35-.1-.1-.12-.2-.34-.3-.01-.13-.2-.24.08-.12.1-.1.15.04.07.1.12-.04.06-.34.09-.79-.1-.24-.09-.31-.19-.43-.16-.2-.02-.2.03-.59.02-.14.04-.12.06-.07-.07-.04-.13.07-.02.08-.08.07-.15v-.09l-.04-.06.12-.24.04-.09-.02-.41-.06-.15.01-.08.06-.22-.01-.21.1-.25.08-.12.09-.27.02-.17.04-.13-.03-.13.06-.1-.04-.14-.01-.19-.08-.07-.13-.27.01-.12-.14-.25-.01-.09-.13-.13-.03-.08-.01-.36-.03-.1-.12-.2-.26-.29v-2.44z"/><path onclick="clickstate('stateMA')" id="stateMA" d="M205.5 99.85v-.02h-.23l-.23-.01h-.46l-.23-.01h-.23l-.23-.01h-.23l-.01.06h-.09v-.06h-.16l-.16-.01-.16-.01h-.16l-.17-.01-.16-.01h-.16l-.16-.01-.05-.06.06-.2.06-.2.06-.21.06-.2.06-.2.06-.2.06-.2.07-.21.18.01.19.01h.19l.19.01.19.01h.19l.19.01.19.01.27.01h.28l.27.01.27.01.28.01.27.01.27.01h.28l.16-.06.2-.19.12-.04.2-.11.1-.03.22.01-.04.13.05.12.04.13.09.12.07.02.08-.03.06.01.04.05-.01.06-.1.02-.17.11-.15.04-.08.14-.12.15-.22.25.1.07.34.09.15.08.24.46-.06.04-.02.08.21.12.06.33.17.11.26.07.3-.1.26-.14-.01-.11-.16-.26-.04-.12-.12-.08-.04.07-.08-.09-.01-.05.07-.02.09.01.09.05.26.28.07.37.01.23-.03.08-.07-.02-.14.02-.66.12-.15.11-.34.11-.02-.05.02-.12-.02-.25-.06-.01-.53.4-.2.02-.17.12-.04-.06-.03-.3.1-.25h-.05l-.11.09-.06-.11-.08-.05-.07-.06.01-.09v-.14l-.08-.02-.01-.17v-.11h-.15l-.12.01h-.53z"/><path onclick="clickstate('stateMD')" id="stateMD" d="M195.44 107.36l.02.2.17-.19-.11-.16-.1-.14-.16.16-.13-.06-.21-.2-.35-.14-.05-.07.01-.08.05-.11-.11-.11-.26-.11-.11-.08-.03-.02-.01-.11-.03-.07-.06-.03-.01-.05.04-.07-.04-.07-.1-.07-.04-.07.03-.05-.05-.03h-.14l-.14-.05-.14-.11-.16-.02-.27.11-.16.03-.07.06-.03.11-.07.06h-.15l-.03-.01-.17-.03-.12-.07-.03-.03.02-.06-.03-.02-.03-.01-.04.03-.03.11-.31.28-.14-.06h-.06l-.42.4-.12.06-.25.18v-.31l.01-.3v-.31l.01-.31H197.83l.02.38.02.38.02.38.02.39.02.38.02.38.02.38.01.38h1.29v.07l-.02.1-.05.04v-.1l-.03-.04-.05.05-.03.05-.02.21-.03.1-.13.03-.13.27-.12.16-.04.09-.18.03-.29.04-.07.1-.15-.04h-.22l.04-.15.06-.13-.11-.12-.07-.02-.07-.05.08-.11.04-.11-.02-.14.03-.11-.06.02-.09.11-.06.04-.03-.1-.04.03-.03.06-.06.04-.12-.09-.19-.11-.1-.18-.06-.14.06-.25.13-.04.16.04h.22l-.03-.06-.08.01-.23-.21-.07-.12-.12-.03-.06.11-.07.04.08-.26.11-.02.15-.07-.05-.15-.09-.06-.18.08.01-.11.03-.13h.13l.11.04.1-.22v-.1l-.16.15-.03-.31.16-.3.15-.13.19.01.19-.03-.12-.05-.13-.03.1-.12.08-.02.08-.1-.19.01.02-.19-.09.04-.11.02-.04.08.01.14-.04.09-.08.07-.14.05-.02-.09-.05-.05-.01.21-.04.07-.11-.19-.03.04.01.05-.03.1-.09.05.01.12-.04.07-.29-.11v.04l.16.23.12.08.01.12-.1.1-.14-.09-.02.01.07.16.05.13-.05.11.01.14-.01.13-.03.11.07.5.08.14.08.13.04.13-.08.01-.14-.1-.12-.07-.14-.25-.03-.1-.03-.08.01.18.06.2.44.45.09.17.06.13-.02.13-.11-.09-.1-.11-.27-.14-.34-.08-.19-.31v.13l-.04.11-.12-.13-.07-.11-.03-.13-.14.01-.15.11-.15-.03-.02-.21.04-.11.17-.26.15-.13.07-.18-.02-.27z"/><path onclick="clickstate('stateME')" id="stateME" d="M210.79 87.15l.01.05.08.09.13.06.1.02h.11l.31-.12.36-.08.2-.07.03-.07.09-.02.15.02.27.17.31.26.24.2.01.35.01.38v.39l.01.28v.39l.01.31v.4l.01.22.03.06-.02.08-.01.05v.03l.02.04-.01.06-.03.06-.01.06-.01.1.04.06.05.04h.05l.06.03.08.07.12.06.12.02.09-.02.1.04.04.09-.02.08-.06.04-.06.03-.01.07.03.07.04.06.05.1-.02.09-.04.08-.02.07.04.07.1.09.06.09.1.05.05-.04.04-.04.04-.03.07.02.08.02.09.03-.01.07.05.13.04.23-.06.11.01.14.18.05.04.04.01.05-.39.37-.33-.05-.18.09-.19.03-.09.17-.1.03-.14-.01-.12-.05-.1.03-.13.29-.11-.02-.04.1-.05.05-.09.04-.07-.13-.04-.13-.07-.02-.09-.04-.09.01-.06.01-.08.08-.11.07-.08-.05-.06-.1-.06.15-.08.16.01.18-.03.11-.08-.03-.08-.09-.21-.08-.17.01.04-.1.16-.15-.05-.03-.08.02-.04-.02.06-.13.01-.15-.08.05-.09.16-.22.12.01.21-.2.42-.01.18-.14.14-.17.13-.22-.04-.18.11-.09.12-.07.02-.04-.16-.03-.05-.07.24-.06.01-.03-.16-.03-.11-.09.09-.06.25-.06-.02-.02-.09-.04-.03-.02.1.03.15-.04.08-.06-.04-.06-.07-.1.05-.1.02v-.07l.02-.09-.19.05-.22.17-.17.22.06.04.06.07-.3.35-.31.32-.23.52-.1.06-.08.09-.15-.23-.03-.18-.17-.21-.07-.15-.03-.16.01-.18-.01-.27-.02-.26-.01-.27-.02-.27-.01-.26-.02-.27-.01-.27-.02-.26-.01-.27-.01-.27-.02-.26-.01-.27-.02-.27-.01-.26-.02-.27-.01-.24.04-.03.12-.07.08.01.06.1.06.07.06-.02.05-.1v-.13l.08-.1.09-.01h.08l.04-.04-.01-.07-.03-.1.01-.13.21-.22.25-.15.08-.08.03-.15.14-.16.07-.09.02-.08-.04-.1.01-.18.05-.23.06-.24.13-.22.22-.24.05-.31.06-.33.26-.32.3-.37.17-.21.3-.38.22-.26.11-.13.11-.14.19.04.18.04-.03.22.03.1z"/><path onclick="clickstate('stateMI')" id="stateMI" d="M185.07 97.44l-.13.66-.11.28-.19.16.01-.04.01-.05v-.16l-.03-.06-.07-.02-.09.02-.11.06-.03.06.04.06-.02.06-.09.05-.06.12-.02.18-.04.12-.04.04-.18.07-.09.06-.08.08-.07.15-.06.19-.03.15.02.09-.05.05-.1.1-.02.03.01.06-.02.03h-.05l-.04.03-.08.1-.16.28-.02.05-.02.01-.64.02-.64.03-.64.02-.64.02v-.14h-3.98l.13-.07.2-.15.11-.14.11-.19.11-.22.22-.34.1-.21.1-.26.08-.27.05-.29.03-.3-.01-.3-.05-.31-.1-.31-.05-.16-.02-.04-.19-.4-.2-.55v-.05l.19-.33.01-.05-.02-.26-.04-.14-.1-.18v-.04l.2-.23.12-.18.11-.21.07-.25.03-.28v-.19l-.03-.1v-.07l.04-.05.22-.06.07-.12.02-.19.04-.1h.07l.07-.04.06-.08.08-.02.1.03.15-.12.18-.28.14-.16.1-.03.01.03-.06.08-.01.09.02.1-.02.1-.05.13.03.04-.08.21v.11l.05.08.05-.03.07-.14.02-.07-.03-.01.01-.06.05-.1.04-.05h.03l.01.06-.01.11-.11.26-.02.08.03.03.12-.17.11-.26.08-.2.01-.11-.02-.28v-.12l.03-.08.11-.09.19-.1.18-.05.18-.01.13-.03.07-.04-.03-.04-.12-.03-.09-.06-.06-.1-.03-.11.03-.13.07-.12.14-.12.04-.09-.05-.06.06-.02.16.02.12-.02.06-.04h.02l.14.05.25.15.23.08.22.03.16.05.1.08.08.09.04.1.11.05.17.02.13.04.09.07.53.19.22.09.12.1.04.06-.01.06.01.07.09.12.04.01.02.06v.11l.03.08.05.04-.03.01-.16-.06-.1.02-.04.08-.01.08.03.07.21.22.06.21.01.24-.03.1-.02.21-.02.32v.11l-.07.11-.19.16v-.03l-.05-.01-.04.02-.07.14-.06.24-.07.13-.08.02-.05.04-.02.05-.09.03-.16.02-.11.07-.08.21v.1l-.04.13.01.1.04.09.13.09.22.09.13.01.09-.03.09-.15.09-.06.11-.02.04-.07.18-.29v-.06l-.06-.03.01-.01.08-.02.08-.03.06-.07.11-.05.27-.08.14-.08.09-.02.14.05.17.1.14.16.1.2.13.53.15.86.11.47.06.11.02.05zm-9.98-5.03l-.09-.03-.08-.1-.05-.1v-.1l.11-.24.01-.04-.01-.02-.06-.03-.14.04-.14.01-.05-.02-.02-.04.01-.06.02-.08.09-.15v-.14l.04-.08-.04-.14.01-.07-.06-.08-.16-.1-.37-.13.04-.15-.02-.07-.09-.1-.39-.11-.27-.05h-.26l-.19-.04-.21-.01-.13-.07-.14-.07-.14-.07-.13-.07-.24-.05-.24-.06-.24-.06-.24-.06-.24-.05-.24-.06-.24-.06-.24-.06-.06-.1-.05-.1-.05-.1-.06-.1-.11-.04-.06-.03-.04-.05-.1.02-.04-.08.01-.02.13-.03.36-.12.31-.15.25-.18.32-.11.38-.04.28-.07.16-.08.22-.17.13-.05.15-.02.12-.06.08-.12.15-.13.22-.15.12-.06.03.03.01.05v.08l.05.06.12.05.05.06-.01.08.03.06.08.06.02.12-.04.18v.12l.02.06.03.03.04-.03.05-.07.02-.04.02-.04.32-.19h.06l.1.04.49.07.19.05.2.1.07.05.25.34.11.13.07.04.04.05.03.13.04.03.36.03.16-.02.1-.05.11.03.12.11.12.03.12-.05h.11l.1.06.05.04.03-.01.21-.17.25-.15.33-.16.19-.08.05.02.3-.06h.28l.36.03.34-.04.3-.11.28-.06.24-.01.09.03-.06.07-.03.13-.01.18-.02.12-.03.05-.01.04.03.05.23.03.12.05.14.01.16-.06.12.02.08.1.12.01.12-.06.08-.07.07-.02.06-.01.06.03.04.06.1.14.05.1.03.15.02.05v.09l-.07.06-.02.05.04.04.23.01.1.05.04.05-.02.06.01.06.06.07.18.09.04.05-.01.05-.06.03-.09.02-.7-.1-.2-.01-.03.03-.02.01-.03-.01h-.06l-.03-.03-.03-.06-.06-.04-.1-.01-.08.04-.1.19.02.03-.02.12.03.03v.02l-.03.03-.06-.01-.08-.02-.33-.28-.25-.14-.31-.1-.24-.05h-.18l-.14.08-.12.13-.18.08-.24.02-.13.04-.02.06h-.09l-.16-.06-.16-.01-.16.02-.12.06-.13.17-.03.08-.09.07-.24.12-.02.04-.13.13-.04.07v.07h-.04l-.09-.08v-.11l.08-.13.07-.07.07.01.03-.06.02-.12-.02-.06-.13.02-.06.05-.08.01-.1-.03-.09.07-.07.16-.09.1-.1.05-.07-.05-.04-.16v-.13l.04-.15-.02-.03-.04.05-.07.13-.09.27-.05.09-.08.04-.12.17-.16.29-.19.29-.21.28-.12.15-.04.02-.02.05-.01.12z"/><path onclick="clickstate('stateMN')" id="stateMN" d="M156.58 83.06H160.1l.45.01.01-.51.01-.4.41.05.13.07.04.04-.02.11.04.33.07.28.18.34.01.13.06.08.1.08.4.09.69.11.39.12.1.14.18.06.28-.03.19-.06.17-.13.23-.03.19.01.2.01.11.02.31.11.2.08.28.16.16.08.08.16.09.22h.13l.09-.13.25-.02.32.09.28.25.41.22.24.11h.26l.32-.11.34-.21.24-.04.15.02.08.17.1.06.27-.02.55.04.44-.05.1.1.09.15.18.04.24-.04.38.03-.05.02h-.06l-.07.03-.1.08-.21.11-.32.15-.38.13-.77.23-.48.25-.22.15-.82.74-.5.4-.81.55-.07.07-.01.07h-.03l-.14.13-.05.09-.13.02v.35l-.01.35v.69l-.06.04-.08.08-.11.02-.52.28-.08.08-.1.2-.17.21-.04.11.01.16.26.12.1.12.04.15v.12l-.13.25-.03.1.02.3-.07.1.05.24.01.09-.04.27-.03.07.05.14.01.02.24.19.2.11.19.03.14.09.1.13.14.08.18.04.18.11.28.27.13.23.24.16.39.17.25.16.13.13.08.33.06.71H158.07v-4.32l-.15-.18-.32-.14-.08-.09-.15-.21-.06-.09-.01-.08.08-.08.29-.23.09-.11.04-.1.07-.24-.03-.18.02-.29-.06-.21-.01-.11-.04-.13-.22-.35-.05-.29-.05-.14-.02-.35.01-.1.04-.2-.09-.13-.02-.11-.04-.85-.03-.12.01-.4-.17-.41-.08-.14-.04-.18v-.08l-.13-.28-.1-.31.01-.27-.03-.21.01-.16-.02-.24.03-.13v-.21l-.19-.76z"/><path onclick="clickstate('stateMO')" id="stateMO" d="M171.05 114.31h-.35l-.32.01-.31.01h-.32l.15-.26.1-.09.07-.1.13-.09.14-.19.02-.09-.02-.09-.08-.12-.09-.19h-8.57v-3.08l-.01-.32V106.8l-.3-.17-.13-.15-.07-.21-.13-.2-.21-.2-.03-.21.14-.22.11-.12h.09l.01-.1-.07-.19-.1-.07-.14.04h-.12l-.44-.31-.03-.02-.14-.21-.06-.24-.11-.16-.16-.08-.11-.16-.04-.25-.11-.25-.05-.07.48-.01h.97l.49-.01h.97l.49-.01h.97l.48-.01h.49l.48-.01h.97l.49-.01h.48l.1.18.1.05.02.05.14.09.03.09.17.13-.11.37v.31l.06.37.08.28.09.19.33.35.56.52.35.49.14.47.16.19.2-.1.23.05.26.07.14.1.03.03.01.03-.01.03-.04.1-.31.77-.11.36.01.13.13.19.24.26.21.16.18.08.29.2.38.33.19.25v.16l.04.17.08.17v.17l-.08.16.03.21.14.26.12.16.1.06h.02l.01-.03-.02-.03v-.04l.01-.04.02-.02h.01l.1.06.13.15.06.19-.01.24-.05.23-.09.22-.1.07-.05-.01-.1-.04-.04.01-.09.06-.1.21v.01l-.04.02-.03-.02v-.02l-.02-.06-.04-.06h-.06l-.01.03-.01.07.01.03.03.18-.03.13-.09.05-.02.07.06.08v.04l-.03.03-.06.01-.05.02-.04.06.08.13-.02.15-.1.18-.02.07z"/><path onclick="clickstate('stateMS')" id="stateMS" d="M174 116.72l.17.16-.01.06v.04l-.01.11-.05.44-.05.45-.04.44-.05.45-.05.44-.04.44-.05.45-.05.44-.04.45-.05.44-.05.45-.04.44-.05.44-.05.45-.05.44-.04.45.02.45.02.45.02.45.02.45.02.45.02.46.02.45.02.49-.56.04-.24-.12-.11-.03h-.06l-.29.12-.32.08-.08-.02-.11-.01-.23.3-.15.07-.05-.02-.05-.02-.04-.03-.07-.18-.02-.13-.09-.27-.1-.15-.11-.11-.05-.1v-.07l-.03-.12v-.09l.14-.38.05-.27h-3.23l-.46-.01.01-.06.08-.09.02-.11-.06-.26.02-.14.12-.02.05-.14v-.25l.05-.17.09-.09.08-.2.08-.32.17-.27.25-.21.12-.18.01-.14.03-.06.05-.04.08-.09.11-.13.02-.09v-.07l-.01-.06-.09-.12-.13-.11-.09-.16.01-.12-.03-.11-.07-.09.02-.09.09-.08v-.07l-.08-.07v-.13l.08-.19v-.12l-.1-.07-.01-.12v-.06l.09-.43-.02-.05-.09-.13-.01-.16.05-.19-.03-.14-.07-.06-.02-.06-.02-.08.08-.08v-.08l-.07-.07.05-.09.16-.13.04-.07.05-.07.03-.18-.03-.1-.03-.07.01-.04.04-.03.19-.07.05-.04.02-.06-.06-.14.05-.14.18-.15.1-.14.01-.11.08-.09.16-.05.1-.22.04-.38.05-.16.08-.02.04-.05.02-.11.09-.11.19-.12.07-.11-.02-.06v-.07H174z"/><path onclick="clickstate('stateMT')" id="stateMT" d="M124.19 83.07H143.48l.01.45v.92l.01.46v1.37l.01.46V88.11l.01.46v.91l.01.46v1.58l.01.56V92.67H129.98v1.2l-.12-.06-.09-.07-.07-.09-.13-.23-.07-.09-.07-.05h-.07l-.08.03-.06.05-.02.1-.06.11v.1l.03.05-.01.02-.04.02-.31-.03-.26.05-.19-.04-.35.02-.3-.04-.1.02-.07.05-.08.13-.03.02-.03.01-.49-.07h-.13l-.14.08-.04.06-.01.08-.03.02h-.05l-.1-.06-.12-.08-.06-.06-.01-.14-.09-.16-.02-.15-.06-.12-.09-.12-.09-.08-.09-.02-.16.01-.04-.01-.18-.16-.05-.07-.02-.06.06-.16-.02-.08-.04-.11-.07-.08-.1-.08-.09-.16-.18-.23-.05-.18-.06-.15-.02-.15-.07-.09.01-.11-.01-.04-.02-.01-.12-.07-.13-.11-.07-.03h-.03l-.01.03-.01.05-.22.2-.18.08-.08.09-.08.05h-.04l-.07-.03-.18-.13-.16-.06-.01-.02v-.11l.08-.13-.08-.23.02-.08.06-.06.17-.08.02-.04-.04-.22-.1-.09-.02-.04.03-.18-.04-.12.07-.1v-.17l.07-.17.06-.27-.02-.11.08-.12.03-.12v-.09l-.01-.05-.03-.02h-.05l-.27.05-.08-.01-.08-.02-.04-.05-.01-.09-.06-.07-.04-.01-.12.04h-.02l-.01-.02-.05-.08-.2-.17-.09-.19-.19-.16-.18-.22-.34-.36-.09-.07-.26-.12-.21-.18-.21-.12-.02-.03v-.01l.01-.01.06-.03.02-.07-.08-.13.04-.13-.06-.18-.03-.06-.15-.17-.09-.16-.16-.15-.2-.24V83.07H124.19z"/><path onclick="clickstate('stateNC')" id="stateNC" d="M183.73 116.71l-.58.01-.58.01-.58.01-.59.01.08-.51.05-.12.05-.03h.2l.13-.06.11-.31.26-.24.11-.06.17-.05.41-.06.44-.23.31-.22.25-.07.08-.08.06-.11.03-.14.03-.03.14.01.11-.13.11-.07.11-.04h.06l.03.04.01.1.03.04h.04l.06-.02.09-.07.21-.22.14-.08.22-.05.15.12.1-.04.27-.44.11-.08.09-.03.14-.01v-.12l.05-.19.01-.12.08-.19.04.04.69.01.7.01h.69l.7.01.7.01h.69l.7.01.69.01h.7l.7.01.69.01h.7l.7.01.69.01h.7l.48.01-.06.18.03.11.11.11.11.28.09.37-.12-.15-.13-.08-.2-.06-.18-.11.01.16-.02.16-.14-.05-.09-.05.08.17-.18-.05-.12.01-.08.16-.1.1-.16.03-.23-.15-.07-.17-.03-.2-.01.23.04.24-.02.19.22.03.21-.03.28.01.18-.04.11-.06.27.05.02.23-.04.21-.01.24h.07l.09-.08.04-.42.24-.15.08.01.08.13.02.14.03.19-.05.28-.37.34-.27.3-.13.07-.2-.04-.22-.08-.11-.01-.08.02-.05-.09-.03-.17-.09-.06h-.07l-.04.19-.21.05-.28-.08-.29-.15.13.17.72.31.09.05.07.09-.1.13-.08.15-.01.12-.03.07-.29.2-.16-.03-.4-.36.18.31.15.13.3.07.55-.12.18.13-.15.23-.14.15-.2.02-.17.04-.05.11-.12.01-.19.01-.3.01-.16-.03-.23.22-.08.03-.12-.04-.05-.18-.06-.08v.33l.02.09.05.07-.27.18-.25.22-.09.06-.11.12-.21.32-.05.24-.08.27-.01-.12.01-.2-.05-.23-.03.42-.08.2-.76-.02-.3.1-.28-.29-.26-.28-.26-.27-.26-.27-.26-.28-.26-.27-.26-.28-.26-.27-.27-.01-.27-.01-.27-.01-.28-.01-.27-.01-.27-.01-.27-.01-.27-.01-.01-.19-.01-.13-.17-.23-.1-.14-.22.12-.01-.06.01-.1-.02-.03-.06-.03-.3-.01-.31-.01-.3-.02-.31-.01-.3-.02-.31-.01-.3-.01-.31-.02-.07-.02-.14.08-.36.12-.17.11-.07-.01-.31.1-.3.1h-.04z"/><path onclick="clickstate('stateND')" id="stateND" d="M148.61 83.07H152.72l.82-.01h3.04l.19.76v.21l-.03.13.02.24-.01.16.03.21-.01.27.1.31.13.28v.08l.04.18.08.14.17.41-.01.4.03.12.04.85.02.11.09.13-.04.2-.01.1.02.35.05.14.05.29.22.35.04.13.01.11.06.21-.02.29.03.18H143.53v-.46l-.01-.46v-.91l-.01-.46V86.73l-.01-.46V84.9l-.01-.46v-.92l-.01-.45h5.13z"/><path onclick="clickstate('stateNE')" id="stateNE" d="M147.35 104.69v-2.4h-3.84v-.6l-.01-.61v-3l-.01-.6h10.75l.58.35.34.12.16-.11.35-.06.55-.02.34.05.14.12.28.13.41.14.25.15.08.17.15.1.15.03.05.02.13.21.06.38.11.3.18.24.09.17.01.1.04.12.08.12.04.21-.02.3.04.16.09.01.04.05-.01.06.03.05.07.03.02.09-.03.13.02.09.09.04.01.07-.05.1.01.08.07.06.05.26.02.45-.01.27-.04.08.07.17.11.18.05.07.11.25.04.25.11.16.16.08.11.16.06.24.14.21.03.02H147.35z"/><path onclick="clickstate('stateNH')" id="stateNH" d="M206.04 92.65l.19-.46.18-.22.24.07h.13l.1-.08.01.24.02.27.01.26.02.27.01.27.02.26.01.27.01.27.02.26.01.27.02.27.01.26.02.27.01.27.02.26.01.27-.01.18.03.16.07.15.17.21.03.18.15.23-.08.31-.06.15-.22-.01-.1.03-.2.11-.12.04-.2.19-.16.06h-.28l-.27-.01-.27-.01-.28-.01-.27-.01-.27-.01h-.28l-.27-.01-.03-.09-.11-.15-.03-.07.01-.07.06-.19.04-.06.05-.11.06-.45.06-.26.05-.47.04-.14.05-.09.08-.22.14-.18.09-.23.12-.19.01-.12.09-.25.06-.44.05-.07.26-.06.08-.05.28-.18.08-.07.06-.08.04-.13.03-.03.01-.07-.1-.29v-.1l.21-.33-.05-.19.03-.05z"/><path onclick="clickstate('stateNJ')" id="stateNJ" d="M199.2 104.73l.1-.08.22-.15.33-.18-.46-.6-.11-.04-.12-.29-.14-.08-.04-.05-.01-.23.02-.13.02-.07.12-.07.07-.13v-.06l-.09-.21v-.07l.17-.13.23-.24.14-.28.06-.08.06-.05.15-.08.19.11.19.11.2.11.19.11.19.11.19.11.19.11.18.11-.03.18-.19.38-.08.09-.1.08-.07.03-.06.07-.08.09-.07.19.04.18.37.06.1-.05.05.12.03.17-.03.19-.06.19-.05.24-.04.36-.06.32v-.1l.03-.39-.06.04-.04.09-.11.51-.16.27-.14.19-.14-.03.03.15-.04.08-.04.16-.08.1-.09-.01-.11.08-.05.05-.01.11-.07.1-.29.49-.25.15-.06-.02.07-.24.04-.23-.15-.1-.14-.06-.17.01-.18-.19-.24-.13-.32-.36.01-.1-.01-.17.1-.26.09-.19.14-.1.38-.1.09-.14.06-.13z"/><path onclick="clickstate('stateNM')" id="stateNM" d="M133.84 125.55V111.91H145.47v1.2h-.08v1.35l-.01.68V117.17l-.01.67v1.35l-.01.68V121.9l-.01.67v1.36H138.42l.19.44.23.12h-.01l-.42-.01h-.85l-.42-.01h-1.27l-.42-.01-.01.27V125.55h-1.6z"/><path onclick="clickstate('stateNV')" id="stateNV" d="M124.23 111.9v1.98l-.04.01-.11.24-.12.11h-.1l-.09-.07-.1-.14-.14-.07-.19-.02-.17.02-.15.06-.09.09-.05.17.02.07.09.16v.25l.02.2.05.11.01.13-.03.21.02.16.11.3-.04.85v.02l-.52-.51-.49-.48-.49-.47-.48-.48-.49-.48-.49-.47-.49-.48-.49-.48-.35-.33-.35-.33-.36-.33-.35-.33-.35-.33-.35-.33-.36-.34-.35-.33-.45-.39-.45-.39-.45-.4-.45-.39-.45-.39-.45-.4-.45-.39-.45-.39v-.9l-.01-.46V99.88h11.47V111.9z"/><path onclick="clickstate('stateNY')" id="stateNY" d="M191.52 97.22l.01-.41v-.01l.02-.01.7-.18.44-.06.55-.02.64.09.26.08.15.11.19.03.21-.05.29-.02.36.02.2.02.03.03.02-.01.03-.05.1-.06.27-.08.04.01.06-.04.07-.11.15-.11.2-.13.19-.07h.16l.11-.04.06-.05.02-.05-.02-.05.01-.05.01-.02-.01-.02-.02-.04-.02-.21-.03-.1-.05-.08-.05-.04v-.05l.1-.06v.05l.02.02.05-.02.11-.13.01-.05.07-.05.05-.07-.06-.01-.14.02-.03-.02.07-.11-.01-.05-.02-.03-.05-.01-.16.09-.05.01-.01-.05-.08-.1.22-.19.78-.51.08-.08.03-.07-.02-.06-.02-.02.01-.01.75-.66.43-.31.35-.17.27-.08.18.01.1-.01H202.51l.02.16-.04.18.03.21-.04.43.12.33-.03.22.01.24-.03.06-.09.13-.06.14-.03.13v.09l.09.39.01.17v.11l-.07.32-.01.09.02.03h.03l.08-.1.04-.02.04.03.12.15-.01.27v.2l-.01.22-.01.33v.24l-.01.22v.17l-.03.13.06.14-.07.21-.06.2-.06.2-.06.2-.06.2-.06.21-.06.2-.06.2.05.06-.02.23-.01.23-.02.22-.01.23-.02.23-.01.23-.02.23-.02.23.06.09.06.09-.07.05-.11.06-.12.07-.16.1.08.12.1.15-.08.06-.21.21-.14.11-.11.04-.07.09-.08.07.08-.21.08-.18.06-.34-.01-.28-.09-.12-.08-.07.1.27.01.34v.01l-.18-.11-.19-.11-.19-.11-.19-.11-.19-.11-.2-.11-.19-.11-.19-.11-.04-.09-.07-.07-.34-.12-.09-.08-.08-.11-.05-.13-.03-.14v-.12l.02-.12-.08-.08v-.08l-.05-.05-.22-.1-.07-.13-.15-.12H195.49l-.27-.01H190.18v-.66l.11-.06.37-.22.19-.16.19-.13.21-.1.16-.14.12-.16.13-.12.15-.08.07-.09.01-.09-.02-.12-.07-.15-.01-.12.05-.08.01-.06-.02-.03-.31-.09z"/><path onclick="clickstate('stateOH')" id="stateOH" d="M188.72 99.91V102.88l.01.26-.23.1-.04.1.07.12.03.16.01.2-.13.43-.26.66-.13.42-.01.17-.17.22-.34.28-.23.17-.14.06-.11-.01-.1-.07-.1.05-.11.16-.11.08h-.09l-.09.11-.07.2-.06.11-.06.03-.01.1.05.17v.07h-.03l-.03-.01-.06.04-.08.09h-.02l-.03-.01-.02-.13-.06-.09-.1-.05-.13.12-.18.28-.07.19.03.12.01.19-.04.08-.1.02-.07.11-.06.17-.13.11-.21.05-.22-.08-.02-.01-.26-.22-.17-.21-.07-.19-.23-.01-.39.18-.29.02-.2-.12-.15-.05-.15.04-.14.08-.12-.05-.15-.15-.23-.1-.32-.06-.22-.16-.12-.26-.13-.18-.14-.1-.15-.03-.17.04-.12-.02-.09-.08-.11.01-.11.08v-.8l.01-.78v-.79l.01-.78.01-.78v-.78l.01-.79.01-.78.64-.02.64-.02.64-.03.64-.02.02-.01.02.05.18.02.11.05.1.08.33.14.1.09.1.06h.1l.07-.02.04-.07.05-.01.06.06.18.07.01.01-.52.11-.11.06.13.03.13-.01.13-.05h.16l.13.03.04-.02.02-.01.23.14.08.02.09-.02.09-.05.2-.07.31-.09.3-.03.29.01.18-.02.16-.09.37-.3.42-.23.69-.3.67-.23z"/><path onclick="clickstate('stateOK')" id="stateOK" d="M161.6 113.11l.04.33.05.34.04.33.04.34.04.33.05.34.04.33.04.34v.26l-.01.26v.26l-.01.26v.26l-.01.27v.26l-.01.26v.26l-.01.26-.01.26v.26l-.01.26v.27l-.01.26v.26l-.44-.12-.1-.08-.2-.09-.18-.18-.36-.22-.13-.06-.04.01-.08.11-.18.09h-.11l-.18-.03-.04-.03-.02-.07-.08-.04-.05.03-.27.09-.04.07h-.16l-.15-.04-.38.14-.13.12-.14.04-.07.11-.04-.02-.14-.14-.15-.04-.2-.13v-.12l-.03-.02-.03-.01-.05.01-.08.1-.05.03-.05-.01-.2-.07-.08-.12-.04-.04h-.05l-.08.03-.05.14-.03.03-.09.03.01.07-.07.18-.04.04-.05-.01-.05-.04-.04-.07-.02-.06.03-.14-.02-.05-.04-.02-.09.07h-.09l-.1.07-.07.02-.06-.02-.1-.11-.17-.07-.07-.14-.03-.04-.04-.01-.03.01-.06.04-.2.18-.09.05-.08.01-.08-.01-.04-.05-.01-.18-.05-.05-.18-.11-.04-.11-.02-.15-.22.03-.27-.02-.13.13-.06.03-.08-.03-.22-.17-.23.03-.13-.02-.33-.13-.26-.01-.1-.02-.06-.03-.03-.2-.1-.17-.03-.05-.17-.11-.03-.01-.02.03-.04.13-.05.01-.2-.04-.19.04-.1-.07-.35-.3-.14-.08-.11-.03V116.85l-.01-.29v-3.45H145.47v-1.2H161.6v1.2z"/><path onclick="clickstate('stateOR')" id="stateOR" d="M112.76 99.88H104.63l-.24-.29-.11-.44-.02-.18.03-.49-.07-.21-.19-.34.08-.3.09-.18.2-.79.05-.07h.09l.15-.13-.07-.03-.1.06.09-.31.1-.27.07-.1.04-.87.06-.67.1-.22-.04-.23.04-.31-.02-.31.21-1.5-.03-.18.07-.24-.07-.64.03-.71-.05-.1-.03-.09.05-.02.1.11.46-.01.29-.09.11.03.12.13.15.03.2-.03.19-.06.15.05.19.11.19.33.19.55.04.18.15.11.17.01.69.08.1-.01.12-.02.39-.21.43-.07.5.02.3.06.12.1.26.01.64-.12.7-.09.38-.08.42-.19.97-.23.49-.02.24-.09.06-.05h4.09l.05.1.2.21.28.18.19.18.08.2-.14.44-.36.69-.19.44-.04.2-.17.32-.33.46-.16.34.01.23.11.13.21.03.15.07.08.11v.1l-.08.1-.02.09.04.1-.03.18-.12.36v3.83l.01.53H112.76z"/><path onclick="clickstate('statePA')" id="statePA" d="M190.18 99.22v.66H195.22l.27.01h3.18l.15.12.07.13.22.1.05.05v.08l.08.08-.02.12v.12l.03.14.05.13.08.11.09.08.34.12.07.07.04.09-.15.08-.06.05-.06.08-.14.28-.23.24-.17.13v.07l.09.21v.06l-.07.13-.12.07-.02.07-.02.13.01.23.04.05.14.08.12.29.11.04.46.6-.33.18-.22.15-.1.08-.19.22-.28.07-.16.08-.04.04-.17-.07-.24.01-.08.03-.06.06-.15.19H188.73v-.28l-.01-.28V103.41l.01-.27-.01-.26V99.91l.36-.12.16-.09.16-.08.08-.05.1-.04.6-.31z"/><path onclick="clickstate('stateRI')" id="stateRI" d="M205.42 101.48l.02-.14.05-.05.01-.15.01-.1v-.36l-.01-.2v-.63h.53l.12-.01h.15v.11l.01.17.08.02v.14l-.01.09.07.06.08.05.06.11-.07.06-.08-.09-.04-.1-.05-.06-.06-.02.05.22-.12.17-.03.43-.16.18-.47.11-.14-.01z"/><path onclick="clickstate('stateSC')" id="stateSC" d="M188.05 123.86l-.39-.19-.12-.17v-.23l-.07-.25-.23-.43-.16-.12-.11-.29-.11-.5-.17-.32-.23-.14-.16-.16-.08-.19-.08-.12-.09-.06-.04-.1-.01-.14-.13-.18-.39-.34-.1-.2-.18-.22-.46-.43-.44-.84-.05-.17-.1-.07-.15-.02-.15-.09-.22-.21-.36-.26.07-.23.28-.31.1-.16.01-.01h.04l.3-.1.31-.1.07.01.17-.11.36-.12.14-.08.07.02.31.02.3.01.31.01.3.02.31.01.3.02.31.01.3.01.06.03.02.03-.01.1.01.06.22-.12.1.14.17.23.01.13.01.19.27.01.27.01.27.01.27.01.28.01.27.01.27.01.27.01.26.27.26.28.26.27.26.28.26.27.26.27.26.28.28.29-.03.01-.51.36-.15.15-.42.61-.1.39-.09-.16.02-.13v-.1l-.1.22.1.31-.09.12-.28.23-.15.03-.17.07-.05.22-.24.2-.13.09-.25-.05.08.19-.09.15-.16.11-.19.08-.11-.01-.1.04-.07.09-.18.09-.19-.05-.22-.03-.12.05.2.09.11.13-.02.17-.05.06-.13.09-.06-.01-.03-.08-.04-.17-.06.04-.01.07-.05.03-.18-.26.01.2.06.16.06.08.06.04.02.07-.12.18-.07.04-.11.03-.06.11.02.09z"/><path onclick="clickstate('stateSD')" id="stateSD" d="M158.07 96.27l-.28.01.03.15.08.15.01.09-.01.07-.06.06.02.09.01.03.13.06.04.09.01.1v.07l-.08.13-.02.18-.09.27-.1.16-.03.08.01.07.16.17.01.07.06.09.05.19-.15-.03-.15-.1-.08-.17-.25-.15-.41-.14-.28-.13-.14-.12-.34-.05-.55.02-.35.06-.16.11-.34-.12-.58-.35h-10.75v-2.41l-.01-.6V92.67h.06V92.08l-.01-.56V90.4H157.87l-.07.24-.04.1-.09.11-.29.23-.08.08.01.08.06.09.15.21.08.09.32.14.15.18v4.32z"/><path onclick="clickstate('stateTN')" id="stateTN" d="M178.9 116.72l-.3-.01h-.62l-.31-.01h-.31l-.31-.01h-.61l-.31-.01h-.62l-.31-.01h-.62l-.3-.01H173.94l.03.03.03.03h-4.08v-.01l.07-.1.22-.17.1-.21-.03-.27.08-.24.19-.21.08-.21-.04-.22.1-.17.22-.13.03-.05-.01-.04v-.07l.01-.04.05-.02.06-.02.03-.04v-.05l-.04-.1.01-.04.02-.07.1-.18.02-.15-.08-.13.04-.06.05-.02.06-.01.03-.03v-.04l-.06-.08.02-.07.09-.05.03-.13-.03-.18.13-.01v.02l.03.02.04-.02v-.01h2.69l-.01-.22-.07-.24h.01l.26.02.17.02.05.07.64-.01.64-.01.64-.01.64-.02.67.03.67.02.67.02.67.03.66.02.67.03.67.02.67.02h.01l.02-.01h.01l.02-.01.01-.01h.02l.01-.01h.45l.94.01H185.56l.41.01.09-.05h.2l.27.01-.08.19-.01.12-.05.19v.12l-.14.01-.09.03-.11.08-.27.44-.1.04-.15-.12-.22.05-.14.08-.21.22-.09.07-.06.02h-.04l-.03-.04-.01-.1-.03-.04h-.06l-.11.04-.11.07-.11.13-.14-.01-.03.03-.03.14-.06.11-.08.08-.25.07-.31.22-.44.23-.41.06-.17.05-.11.06-.26.24-.11.31-.13.06h-.2l-.05.03-.05.12-.08.51-.62-.01-.63-.01-.62-.01h-.63z"/><path onclick="clickstate('stateTX')" id="stateTX" d="M161.86 119.97l.1.12.08.03.02.05.04.01.05-.01.07-.05.11.01.09-.02.18.03.1.05v.66l.01.32v2.77l.26.29.12.2.03.1.01.36.03.08.13.13.01.09.14.25-.01.12.13.27.08.07.01.19.04.14-.06.1.03.13-.04.13-.02.17-.09.27-.08.12-.1.25.01.21-.06.22-.01.08.06.15.02.41-.04.09-.12.24-.1-.01-.2.4.12.22-.01.08-.4.05-.92.44-.35.24.02-.08.43-.31-.16-.05-.24.08-.09-.03.11-.26-.04-.23h-.17l-.11.18-.08-.01-.1-.08-.08.03.06.41.11.17.09.22-.25.26-.23.22-.03.22-.23.28-.22.15-.52.37-.14.08-.24.17-.32.13-.31.21-.1.03.2-.18.23-.17-.2.03-.31-.08-.19-.01v.07l-.14.08-.15-.13-.07-.08-.03-.08-.06-.02-.06.04.22.53.1.02.1.05-.13.13-.14.09-.22.06-.19-.19-.04.24-.02.24-.06.07-.1.08-.06-.06-.02-.1-.07.09-.09.06-.16.01-.11.04v.1l.03.1.2-.08-.07.26-.19.25-.16.06-.23-.03-.06.02-.05.05.27.41-.18.6-.11.22-.08.03h-.08l-.31-.19-.16-.15.14.41.4.12.02.15v.13l-.08.16-.07.21.05.14.07.36.05.16.06.49.06.22.37.79.12.01.02.08-.01.17-.27.04-.1.08-.03.06-.01.03h-.04l-.12-.04-.28-.23-.41-.14-.55-.05-.37-.11-.19-.18-.21-.1-.22-.03-.18-.09-.14-.16-.21-.09-.27-.05-.18-.11-.12-.28V137l-.11-.47-.14-.29-.27-.37-.03-.05v-.06l.03-.21-.03-.15-.08-.13-.02-.13.04-.14.01-.17-.04-.19-.18-.21-.3-.23-.26-.33-.22-.43-.21-.3-.21-.17-.14-.2-.08-.25-.02-.14.03-.04-.13-.26-.29-.5-.17-.37-.04-.23-.19-.27-.32-.32-.18-.21-.04-.14-.51-.42-.15-.26-.12-.08-.13.01-.07-.03v-.06h-.04l-.09.06-.27.01-.46-.04-.33-.07-.2-.11-.14.02-.08.14-.18.09-.27.04-.23.26-.19.48-.08.31.02.14-.05.1-.12.06-.13.14-.13.22-.15.1h-.17l-.32-.17-.46-.33-.37-.2-.26-.08-.23-.15-.21-.23-.18-.15-.17-.07-.2-.25-.23-.43-.11-.32v-.35l-.3-.75-.16-.33-.11-.15-.23-.18-.35-.21-.45-.42-.58-.62-.41-.38-.23-.13-.21-.22-.18-.32-.17-.21-.02-.01-.23-.12-.19-.44h6.93v-1.36l.01-.67V119.87l.01-.68v-1.35l.01-.67V115.14l.01-.68v-1.35H151.24v3.45l.01.29V117.71l.11.03.14.08.35.3.1.07.19-.04.2.04.05-.01.04-.13.02-.03.03.01.17.11.03.05.1.17.03.2.06.03.1.02.26.01.33.13.13.02.23-.03.22.17.08.03.06-.03.13-.13.27.02.22-.03.02.15.04.11.18.11.05.05.01.18.04.05.08.01.08-.01.09-.05.2-.18.06-.04.03-.01.04.01.03.04.07.14.17.07.1.11.06.02.07-.02.1-.07h.09l.09-.07.04.02.02.05-.03.14.02.06.04.07.05.04.05.01.04-.04.07-.18-.01-.07.09-.03.03-.03.05-.14.08-.03h.05l.04.04.08.12.2.07.05.01.05-.03.08-.1.05-.01.03.01.03.02v.12l.2.13.15.04.14.14.04.02.07-.11.14-.04.13-.12.38-.14.15.04h.16l.04-.07.27-.09.05-.03.08.04.02.07.04.03.18.03h.11l.18-.09.08-.11.04-.01.13.06.36.22.18.18.2.09.1.08.44.12z"/><path onclick="clickstate('stateUT')" id="stateUT" d="M133.84 111.91h-1.2l-.6-.01H124.23V99.88h5.75v2.11l.01.3H133.84V111.91z"/><path onclick="clickstate('stateVA')" id="stateVA" d="M195.26 107.23l.04.02.09.05.05.06-.03.28-.09.13-.14.11-.18.18-.05.17-.06.32.08.11.08.03.24-.08.12.04.27.38.5.15.18.1.15.2.23.11.17.17.01.11-.06.13-.03.17-.07.11-.18.02-.11-.03-.57-.62-.07-.05-.22-.33-.25-.17h-.08l.36.32.15.23.25.31.19.13.13.21.13.1.34.13-.12.1.19.09.03.15-.02.18-.26-.07-.01.13.02.08-.11.06-.17-.09-.42-.47.01.07.03.07.25.3.21.18.19.09.14.15.05.09.04.14-.11.1-.12.05-.12-.1-.08-.1-.19-.17-.05-.18h-.14l-.59-.24-.47-.02.05.05.06.03.37.06.15.11.31.1.18.02.07.3.25.21.03.16.17.01.3-.15.19.06.28.04.07.12.04.23.1.26.06.26h-.2l-.48-.01h-.7l-.69-.01-.7-.01h-.7l-.69-.01-.7-.01h-.7l-.69-.01-.7-.01h-.69l-.7-.01-.7-.01h-.69l-.7-.01-.69-.01-.04-.04-.27-.01h-.2l-.09.05-.41-.01h-1.52l-.94-.01h-.43l.19-.12.29-.06.51-.2.21-.2.29-.15.12-.17.19-.17.07-.19.03-.02.31-.17.34-.22.72-.58.02.08-.03.08.06.1.05.15.08.1.09.07.14.07.18.12.14.03.04-.01.16-.11.12-.06.14-.12.23.17h.1l.23-.08.22-.02.05-.02.08-.07.01-.14.02-.04.03-.02h.04l.1.05h.1l.41-.16.03.01.05.08.18-.1.11-.09.04-.13.09-.13-.02-.06-.05-.08.07-.18.11-.17.42-.54.13-.32.17-.21.06-.16.13-.17.09-.34.06-.06.08-.01.08.04.06.06.04.1.21.09.17.01.13-.06.07-.12.1-.22.09-.13.06-.17.06-.12.09-.07.24.01.12-.11.1-.11.05-.04.07.01.21-.19.29-.39.06-.24.07-.18.03-.18.05-.1.25.2.14.11.33.26.22.17.08-.2.13-.28.11.08.26.11.11.11-.05.11-.01.08.05.07.35.14.21.2.13.06z"/><path onclick="clickstate('stateVT')" id="stateVT" d="M202.51 92.66h.33l.8-.01H206.04l-.03.05.05.19-.21.33v.1l.1.29-.01.07-.03.03-.04.13-.06.08-.08.07-.28.18-.08.05-.26.06-.05.07-.06.44-.09.25-.01.12-.12.19-.09.23-.14.18-.08.22-.05.09-.04.14-.05.47-.06.26-.06.45-.05.11-.04.06-.06.19-.01.07.03.07.11.15.03.09-.19-.01-.19-.01h-.19l-.19-.01-.19-.01h-.19l-.19-.01-.18-.01-.06-.14.03-.13v-.17l.01-.22v-.24l.01-.33.01-.22v-.2l.01-.27-.12-.15-.04-.03-.04.02-.08.1h-.03l-.02-.03.01-.09.07-.32v-.11l-.01-.17-.09-.39v-.09l.03-.13.06-.14.09-.13.03-.06-.01-.24.03-.22-.12-.33.04-.43-.03-.21.04-.18-.02-.16z"/><path onclick="clickstate('stateWA')" id="stateWA" d="M107.4 83.07h11.06l.01.38v2.31l.01.39v1.92l.01.39v.77l-.02.02-.01.06.06.16.13.24.04.16-.05.09.03.17.07.13H114.65l-.06.05-.24.09-.49.02-.97.23-.42.19-.38.08-.7.09-.64.12-.26-.01-.12-.1-.3-.06-.5-.02-.43.07-.39.21-.12.02-.1.01-.69-.08-.17-.01-.15-.11-.04-.18-.19-.55-.19-.33-.19-.11-.15-.05-.19.06-.06-.03-.09-.01-.21-.12-.11-.12-.36.01-.07-.08-.4.08-.12-.08-.22.05.05-.22-.01-.29.01-.27.06.2.13.21.07-.24.04-.3-.13-.12-.22-.09-.08-.28.52-.24-.27-.05-.11-.11-.14-.02-.01.09-.04.11-.05-.15-.01-.17-.05-.29-.22-.47-.12-.62-.17-.3-.31-.29-.08-.16-.07-.43.04-.32-.06-.23.15.01.39.18.49.14.15.1.24.08 1.31.12.08-.02.17-.07.07.01.2.17.09.02.13-.01.09-.03.16-.12.02.04v.11l.05.15.12.2.04.12-.23.34-.05.01v-.12l-.03-.02-.44.58-.16.28-.01.12V87l.06.02.14-.03.21-.11.01-.03-.19.04-.1.01.02-.13.02-.06.13-.2.13-.11.19-.13.11-.1.08-.14.21-.18.04-.05-.01-.15.01-.02.1.02.04.25-.02.11-.18.13-.03.05.04.19-.03.02-.07-.03-.02.02.17.2.05.15.01.14-.04.27-.05.05-.09-.02-.11-.08-.03.02-.09.21-.03-.01-.06-.25-.03-.02-.17.11-.07.11-.06.17-.08.08.22.02.2-.03.15.08h.06l.14-.08.05-.05.11-.26.06-.05h.09l.09-.04.13-.15v-.05l-.04-.32.01-.18-.03-.06-.05-.06v-.06l.05-.09v-.09l-.04-.08.02-.08.12-.19.02-.09.15-.18-.04-.08-.1-.09-.07-.08-.07-.13-.05-.04-.02.02.07.21-.01.01-.19-.11-.05-.07-.02-.1.02-.07.1-.07.12-.02-.01-.06-.15-.2-.1-.08-.08-.05-.11-.01-.05-.03-.01-.05.02-.05.06-.02.16.02.09-.04-.01-.08-.02-.04v-.28l-.06-.22-.03-.04h-.04l-.04.03-.1.01-.06-.08-.07-.14-.13-.33z"/><path onclick="clickstate('stateWI')" id="stateWI" d="M169.23 98.65l-.01-.02-.06-.21-.19-.16-.33-.11-.21-.16-.1-.23-.05-.25-.03-.28.03-.23.08-.19-.02-.13-.12-.06-.08-.09-.04-.11-.01-.15-.06-.71-.08-.33-.13-.13-.25-.16-.39-.17-.24-.16-.13-.23-.28-.27-.18-.11-.18-.04-.14-.08-.1-.13-.14-.09-.19-.03-.2-.11-.24-.19-.01-.02-.05-.14.03-.07.04-.27-.01-.09-.05-.24.07-.1-.02-.3.03-.1.13-.25v-.12l-.04-.15-.1-.12-.26-.12-.01-.16.04-.11.17-.21.1-.2.08-.08.52-.28.11-.02.08-.08.06-.04v-.69l.01-.35v-.35l.13-.02.05-.09.14-.13h.03l.07.06.16.09.13.01.16-.01.65-.16.27-.11.27-.18h.03l.11.03.04.02.34-.21.12-.03.09.01.11.08.03.05-.04.09-.1.15-.05.11v.1l-.04.1-.11.14.04.04.29-.1.05-.04v-.02l-.02-.03.04-.01.23.14.15.07.13.04.12-.02-.01.02.04.08.1-.02.04.05.06.03.11.04.06.1.05.1.05.1.06.1.24.06.24.06.24.06.24.05.24.06.24.06.24.06.24.05.13.07.14.07.14.07.13.07.21.01.19.04h.26l.27.05.39.11.09.1.02.07-.04.15.37.13.16.1.06.08-.01.07.04.14-.04.08v.14l-.09.15-.02.08-.01.06.02.04.05.02.14-.01.14-.04.06.03.01.02-.01.04-.11.24v.1l.05.1.08.1.09.03v.06l-.04.12-.11.1-.28.12-.05.08v.07l-.18.28-.09.17-.06.18.02.11.09.05.08-.02.06-.08.09-.08.12-.06.09-.1.13-.24.13-.13.08-.01h.02l.14-.06.12.02.07.09.07.07.02.06-.04.13-.06.14-.1.15-.09.22-.08.3-.01.22.04.15-.04.13-.13.12-.11.16-.08.2-.05.17-.01.13.02.1.04.14v.07l-.14.3-.05.14-.01.12-.04.11-.11.23-.03.13-.01.12.03.19-.02.07.01.05.03.03v.06l-.03.09.01.07.05.05.03.09.01.14.04.11.06.1.01.13-.04.18-.02.33v.11h-.24l-.87-.01-.86-.01h-.87l-.87-.01h-.86l-.89-.01z"/><path onclick="clickstate('stateWV')" id="stateWV" d="M185.94 110.61l-.26-.07-.34-.28-.22-.34-.07-.16-.08-.11-.02-.11-.21-.28-.05-.12-.01-.07.07-.15.01-.07-.02-.36-.04-.06.22.08.21-.05.13-.11.06-.17.07-.11.1-.02.04-.08-.01-.19-.03-.12.07-.19.18-.28.13-.12.1.05.06.09.02.13.03.01h.02l.08-.09.06-.04.03.01h.03v-.07l-.05-.17.01-.1.06-.03.06-.11.07-.2.09-.11h.09l.11-.08.11-.16.1-.05.1.07.11.01.14-.06.23-.17.34-.28.17-.22.01-.17.13-.42.26-.66.13-.43-.01-.2-.03-.16-.07-.12.04-.1.23-.1-.01.27V104.8l.01.28v.28h2l-.01.31v.31l-.01.3v.31l.25-.18.12-.06.42-.4h.06l.14.06.31-.28.03-.11.04-.03.03.01.03.02-.02.06.03.03.12.07.17.03.03.01h.15l.07-.06.03-.11.07-.06.16-.03.27-.11.16.02.14.11.14.05h.14l.05.03-.03.05.04.07.1.07.04.07-.04.07.01.05.06.03.03.07.01.11.03.02-.13.28-.08.2-.22-.17-.33-.26-.14-.11-.25-.2-.05.1-.03.18-.07.18-.06.24-.29.39-.21.19-.07-.01-.05.04-.1.11-.12.11-.24-.01-.09.07-.06.12-.06.17-.09.13-.1.22-.07.12-.13.06-.17-.01-.21-.09-.04-.1-.06-.06-.08-.04-.08.01-.06.06-.09.34-.13.17-.06.16-.17.21-.13.32-.42.54-.11.17-.07.18.05.08.02.06-.09.13-.04.13-.11.09-.18.1-.05-.08-.03-.01-.41.16h-.1l-.1-.05h-.04l-.03.02-.02.04-.01.14-.08.07-.05.02-.22.02-.23.08h-.1l-.23-.17-.14.12-.12.06-.16.11-.04.01-.14-.03-.18-.12-.14-.07-.09-.07-.08-.1-.05-.15-.06-.1.03-.08-.02-.08z"/><path onclick="clickstate('stateWY')" id="stateWY" d="M143.51 102.29H129.99l-.01-.3V92.67H143.48V94.47l.01.6V97.48l.01.6v3l.01.61v.6z"/></g></svg>