<svg width="750" height="150"><g id="svgout" transform="rotate(-90 65 60)"><g><path d="M4.017108354821002 4.398158950971159 L43.93174466717767 3.907992978463449 L43.76019761633951 23.91452495837254 L4.293510155634099 24.190784535542733" style="stroke: none; stroke-width: 0px; fill: rgb(166, 40, 84);"></path><path d="M4.286982545629012 3.9953910295078856 C14.298922401358746 3.695196400827461, 24.11518644826951 3.842752232372967, 44.19883574475681 3.7371538304924847 M4.198441539534378 3.976280591624665 C13.704408505213532 4.165376439811522, 23.616217102875865 3.949053615694027, 44.024449296143324 4.156802133158615 M43.82499958681086 4.206435970565347 C43.84591002780853 8.952067581996905, 43.75003621255475 13.78861916288188, 44.252553722999664 24.265758729712115 M44.123924018062574 3.955169026438141 C43.912790328908294 9.432686119794663, 44.09503538219491 15.24527871992961, 44.00995416803968 23.934780682922362 M44.04430616565736 23.619846623395382 C33.15212718211867 24.062631505454785, 21.73209294860605 23.610265542974776, 3.9727435649007723 24.37801693625112 M44.1994659613404 23.80200377477079 C28.414717855965332 24.066389425912895, 12.899736079028541 23.970805695586005, 4.0754533354478095 23.863454965422342 M3.904814810587914 23.955991663628282 C3.7895588441692136 19.593513331101967, 4.195996179011379 15.963787426760573, 4.270009180886435 4.2439296731711575 M3.836798245289536 24.131703704519285 C4.050210405279395 19.70422688768895, 3.8404301910288092 15.566359763426478, 4.133993420256087 3.991930047027307" style="stroke: white; stroke-width: 1px; fill: none;"></path></g><g><path d="M44.33739316424864 3.769750902158471 L63.622998942795775 3.9979554070495293 L64.28433930194998 23.815974790945166 L44.06197023515909 23.80339600860243" style="stroke: none; stroke-width: 0px; fill: rgb(166, 40, 84);"></path><path d="M43.70344109729632 4.225190342658423 C50.52359159477585 4.364910059035557, 57.85942636708045 3.877175283198956, 64.30700772411988 3.8889356097362753 M44.172840500017365 4.0230987627531976 C50.1839163238598 4.109447373393144, 56.199292687151775 3.870960359532404, 64.12001903397355 4.158449204295614 M64.03323994218744 3.7196072384366086 C64.04387585651509 11.18495765681825, 63.82739473316466 18.68510226220962, 64.00641733064954 23.93803811172677 M64.0703773287757 3.959055535457155 C63.93978623939973 10.465931491760918, 63.814622762919484 16.608974698132283, 63.83614536855177 23.977376820467615 M64.01768882698966 24.38890494150438 C58.96475151503816 24.218114272797557, 54.502593423965905 23.86248353993996, 43.600736981210524 23.895227011200678 M63.87855355942782 24.035275810582565 C57.26020317546395 23.923948387266726, 50.61374770574704 24.009003074613023, 43.874174439730986 23.946515426949006 M44.00931988171433 24.149651545713848 C43.668349786421075 17.983968414292463, 43.97623032811571 12.551028762298131, 43.84216336394566 3.6073194496232848 M43.80588207126296 24.044895838486255 C44.07682794301097 19.05978716559993, 44.122232595423014 14.673348484082272, 44.00714206186416 3.860475679022171" style="stroke: white; stroke-width: 1px; fill: none;"></path></g><g><path d="M63.83378995857822 4.197838688836369 L104.26711892118867 4.072970583002597 L104.27443650557545 23.81580291429153 L64.2682055703229 23.98274673337574" style="stroke: none; stroke-width: 0px; fill: rgb(166, 40, 84);"></path><path d="M64.24750008426237 3.927707765406538 C79.05771400888446 3.8629918089126534, 94.56706792097195 3.9506237949270715, 104.26194174943862 3.9512816905939503 M63.860473985776295 3.9911021229522152 C78.89552627561253 4.050287089737513, 93.75990403503688 3.951103670674577, 103.92992868493651 4.107733035901909 M104.00751864910482 4.1166606127482215 C104.26780968385816 9.619895273913386, 104.18260244435083 16.094222341014866, 104.33434717180457 24.04933218941952 M104.0506870618063 4.1638833165926785 C103.82702779006527 9.105916081191163, 103.97200971421023 14.285385749159435, 104.01318399049477 23.852587756078353 M103.7056850407121 24.065098319793307 C94.5509357485864 24.236762040114264, 84.65076287635766 24.399475066120825, 63.80184283879427 23.748429329236455 M104.07684204784036 24.035283352018823 C91.92085188299912 23.906329864940346, 80.10579877898803 24.02181437050138, 63.85686206184076 24.02985640322475 M64.00594242915062 24.344004085919117 C64.14318928041754 18.18213004776316, 63.85601555686048 11.693194851333164, 64.34867746155389 4.376750671166154 M64.18919609074099 24.172502089163896 C63.95383818795332 19.088424216581267, 64.14479573505203 14.087006727595403, 64.17437285955826 4.066810849592553" style="stroke: white; stroke-width: 1px; fill: none;"></path></g><g><path d="M104.00496751834073 3.8076170176520425 L124.39015489861816 4.3874858007736295 L124.0925168311139 24.387361598047832 L104.01605149167852 24.2318289853783" style="stroke: none; stroke-width: 0px; fill: rgb(166, 40, 84);"></path><path d="M104.04280731557544 3.886581361129777 C109.8283713172813 3.8451873920444406, 116.09494284191435 4.150157874112627, 123.6109424426563 4.3252473992957885 M103.81527460578286 4.043421597958193 C109.48338953108532 4.138110589505613, 114.95597783053427 4.172500684241152, 124.1695616339922 4.13843552888246 M123.71811684845302 3.705753765344217 C124.3170137931662 11.557554244128795, 123.74270193056289 19.493361756015872, 123.74287670348416 24.23040679177187 M123.97676119871481 3.853212076210344 C123.97449591522957 11.529262927370171, 124.1675606864766 19.184440296074264, 124.07496780884887 23.96509579016532 M124.06828708657814 24.04472387615355 C118.33636634722204 24.064441604968138, 111.55175766765426 23.798920904054814, 104.36402931370755 24.03503430124232 M124.0088722788933 24.09048215800521 C119.74787261729315 24.008179583498137, 115.34491777302043 23.83357940835317, 103.83437143117081 23.827456224810618 M104.35576215589765 24.246254543036667 C103.77541575981695 17.86750013209119, 104.18074047469095 12.095952163294445, 104.23249387498939 3.893036848599194 M103.98817662452205 24.090172239487856 C103.88701896918587 18.312006721587185, 104.11027764230944 12.87538045471247, 103.98485060909947 4.147288089686363" style="stroke: white; stroke-width: 1px; fill: none;"></path></g><g><path d="M4.2639672246771685 24.14139342347958 L24.304586563600274 24.090917206462542 L23.923690994294432 44.227957626402 L4.169276096066582 44.29895021842453" style="stroke: none; stroke-width: 0px; fill: rgb(166, 40, 84);"></path><path d="M4.386635831305609 24.385013265972812 C10.429219882026421 24.226370024194324, 17.663942788933742 24.186676159032693, 23.713011745565865 23.77134968976948 M4.066761940612759 23.886339232501815 C10.693976718419712 23.80357057236749, 17.59349667745317 23.87952312715359, 23.876991007727895 23.83735905730124 M24.18647564949647 24.131220486267505 C23.803716312770348 29.705217720209355, 24.320186138318075 36.37310998461546, 23.970029623723708 44.05048233912369 M23.87963884666117 24.06692927958456 C23.85696209970351 28.957020411493193, 23.82788326593648 34.22262403652628, 23.93438060292799 43.87062187250727 M24.187153033267652 44.13773479915717 C19.092054458607944 43.78621950280247, 14.86946113952608 44.201770676461024, 4.374578255202967 44.168971062851064 M23.887352461579592 43.85646461242083 C19.63924649158564 44.07151124368101, 15.099138130137364 44.048323319590736, 4.044972815815973 43.996354668735464 M4.132970368344903 44.16018885340053 C4.266694444538589 37.60815731400677, 4.151777297960809 31.737976934246674, 4.317464877827591 24.32015367037122 M3.9675001063251383 44.135321610862576 C3.9467654277748334 37.94370683746024, 4.02868085081581 31.9734343423926, 3.9858614776112145 23.824933305515692" style="stroke: white; stroke-width: 1px; fill: none;"></path></g><g><path d="M23.82171624200062 24.02272227548094 L43.96211385649467 24.133113967903675 L43.79821549435821 44.162093112387296 L24.125514402090012 43.887200167089055" style="stroke: none; stroke-width: 0px; fill: rgb(166, 40, 84);"></path><path d="M23.679046426252707 23.657619659978174 C31.415080133245578 24.22092588297765, 38.89437592064833 23.778491903672293, 44.103332369035 23.703703836339265 M23.948747910433287 23.82392698165312 C29.176416192182266 24.002631831670012, 33.92872579761822 24.16524357947312, 44.1097517495344 23.949830793599567 M44.03783505473042 24.05132776118308 C44.271999892861466 31.127331833101955, 43.68402733167913 39.225526191847585, 44.35147046430896 44.20706088123047 M43.977566857965286 24.198633583421177 C44.01759743403014 29.549778979744957, 43.96867195771396 34.81495969849045, 44.173186911117206 44.13516784105309 M43.81605005129324 43.96061137015504 C37.565661202169906 44.071181667769245, 30.931323724541073 44.25681611123003, 23.80341448604329 43.766074069909216 M43.99483211841068 43.86195767476498 C38.42297524108358 44.00704925746285, 33.261346762758166 43.955382532932624, 23.967383393683033 44.12081888623546 M23.632009157915736 44.0511143092455 C24.132177667168595 36.94855636298968, 24.378247437014952 29.283089920834772, 23.772639955674013 24.154165820288767 M23.985227549997465 43.91105815617717 C24.05340391352012 39.0558723714191, 24.039378318827453 34.4879335192885, 24.020247471295857 24.038906412906613" style="stroke: white; stroke-width: 1px; fill: none;"></path></g><g><path d="M43.7960735913566 24.22519105934578 L64.35891216056866 23.915523928171627 L63.87553059234207 43.61088318719681 L44.39131500238743 43.990684777190374" style="stroke: none; stroke-width: 0px; fill: rgb(166, 40, 84);"></path><path d="M43.671667075850806 24.153706015606474 C49.17296386709581 23.633860638235923, 53.9941160402025 24.018148085850402, 64.23922280151581 23.890227570600146 M44.006396761778404 24.002076296980434 C49.76136811457607 23.980241249767325, 55.136883473325 24.13150111220601, 63.813327507843866 24.123517229992387 M64.26769936270168 24.101410817405977 C63.83701652037619 31.423793214777316, 63.85859693548811 39.77018140341999, 63.99584513538005 44.265501982367844 M64.17933300217152 24.079857149470534 C63.93296663091126 29.534941699351798, 63.89637345948546 35.25147070415145, 63.87489787753313 44.19656930594431 M63.76338821409572 43.994865023557004 C58.34531300461551 44.00858808015768, 52.3044259640048 44.310147331669334, 43.655574447393185 43.64362044216952 M63.9756897416306 43.8914149009182 C56.90960441512149 43.79366241307167, 50.160440914430204 43.930128561509626, 44.09136888825442 44.19934528247402 M43.862020402500356 44.217660027962026 C43.98432784108583 36.83317699249266, 44.03690123945725 29.85536243635168, 44.16897387461294 24.14809137188251 M43.88855979182558 44.08030985699702 C43.841315243585804 38.78122850954429, 43.87453708909584 34.022535272044756, 43.999206652408674 24.170320287088117" style="stroke: white; stroke-width: 1px; fill: none;"></path></g><g><path d="M64.17553532669076 23.982401474731777 L83.98929019211457 23.680417332044396 L83.66643924367699 44.392895853016384 L64.34978787557769 43.858067669029076" style="stroke: none; stroke-width: 0px; fill: rgb(166, 40, 84);"></path><path d="M63.91213088978392 23.668411665654972 C68.27859607984806 23.653016049287974, 72.48711733651304 24.218461602221844, 84.35314121512108 23.79672995122548 M63.82044407166059 24.195654726375505 C68.99305683824304 23.938233751195963, 74.11216932613956 24.131999493902857, 83.94324068616912 23.900132471119253 M83.69208878903224 23.707264755152767 C84.24792191677152 31.798542599976397, 83.89252639369072 39.780900012790866, 83.70807021453759 43.62593579642689 M83.88967436970495 23.929551348456993 C84.02194636147743 31.150293455225558, 84.04871314981179 38.04514206828822, 83.85060771636302 44.016389493010564 M84.3048710289852 43.60617261974683 C78.57753742764442 43.989938525683336, 72.20570731957942 43.69311408758496, 64.33591160384715 43.881392994652 M83.83574590884703 43.93290249724296 C77.09563814032707 44.105418787816184, 70.30506151410168 43.99066760792066, 64.02575188309162 44.12422035274963 M64.35818762385885 44.34584339315639 C63.92040601082799 37.123156505470256, 64.35389217899285 29.663334666052776, 64.35525210199603 24.381707107397894 M63.861318826957344 44.19942852613749 C63.824150615771295 36.89582741756636, 64.0225187559496 29.668561084131, 64.05006861101812 23.86784177019195" style="stroke: white; stroke-width: 1px; fill: none;"></path></g><g><path d="M3.7236070784067397 43.62449803748226 L24.04549601789572 44.399364772695755 L23.63992385484741 63.71846533708977 L3.8293211613133944 63.99087277360089" style="stroke: none; stroke-width: 0px; fill: rgb(166, 40, 84);"></path><path d="M3.700145025687571 43.951879119575445 C10.559364834168875 43.96928831023706, 16.782079418918205 44.2226560992119, 23.896341994812104 43.80227126661438 M4.009892906542464 43.80788655039324 C11.500548979005641 43.764355010406135, 19.288927670576424 43.808430192113086, 23.800968960623354 44.058500080466395 M23.65409000112404 44.315559890364185 C24.094900563425867 50.49325641802831, 24.30357482271734 57.71993754391745, 24.275245475410276 64.31083822879972 M23.95271753945565 43.8432596164021 C23.981308520255677 48.19966020953164, 23.82119941040389 52.378107376711185, 23.92858312656532 64.06902285060869 M23.870910623279066 64.35307345766047 C16.516797646571465 63.983813101173354, 7.9877007718426745 64.03266641687675, 4.3926569875067205 64.35965600791127 M24.072552677908348 63.842649974770865 C19.609130885051368 64.20778606942328, 14.83373306169697 64.15934458055112, 3.853059169196748 64.09516905696158 M3.7207710744379296 64.37474690085375 C3.872897111883053 58.990917309830735, 4.1225967705410085 53.95556122724659, 4.194419919182698 43.60557411468677 M4.0078776382580426 64.09162703778725 C3.9095447970304105 56.517211559626325, 3.9214553012874207 48.86254239601858, 3.9561948730241667 43.98636971593754" style="stroke: white; stroke-width: 1px; fill: none;"></path></g><g><path d="M24.066087986882604 43.64679470842169 L64.31234253601578 44.33143726081523 L64.31338955163145 63.983566832647064 L23.773564054432683 63.67120701323454" style="stroke: none; stroke-width: 0px; fill: rgb(166, 40, 84);"></path><path d="M24.098589046805706 43.83664374068984 C39.53211844610929 44.41525070726054, 54.864534571729415 44.44435639068356, 64.12631008764139 43.65061348772027 M23.858774483885426 43.82203698235295 C33.144931091466134 44.02247766830698, 42.37188713480571 44.17977692941368, 63.98210253536327 44.17509939950645 M63.6757848949448 44.14704054890452 C64.21762115126496 50.4336683842949, 63.674532203078726 56.5278032467687, 63.60360581441207 64.11696844103531 M63.83753392369935 44.178484517681476 C63.984519841064966 51.75992266786515, 64.01058445429263 59.22578544560076, 64.1691496907241 64.16476051286965 M64.25286401237462 64.36808033465304 C49.09923888538055 63.83806190852135, 34.14723309321769 63.908187507085806, 23.68194267072577 63.756068057359 M64.0639371828305 63.80590541812922 C53.79785842714043 63.984529313863376, 43.193577759365205 64.22304504288432, 24.086223468851557 63.953070410543 M23.784383126268136 63.86574249121371 C24.150850069750707 59.44122728462979, 23.666468917806174 55.01432450860426, 23.99589444772657 44.059534032643626 M23.87935055732005 64.15022117820716 C24.22412151290082 58.59895929493066, 23.93018695433085 52.91384695668704, 24.0494901191761 44.18001687416288" style="stroke: white; stroke-width: 1px; fill: none;"></path></g><g><path d="M3.8694876915066976 63.88557738298268 L23.822832964543913 64.06076300934883 L23.980570830904384 84.35634376902743 L4.293612147422136 84.1305206276685" style="stroke: none; stroke-width: 0px; fill: rgb(166, 40, 84);"></path><path d="M4.268874711491515 64.33693609437438 C12.025966732627747 63.8376599739119, 19.65550606569166 64.38181356918587, 24.22956803555595 63.86557135096055 M3.870046266221758 63.90922655211114 C11.901611548527605 63.929933896701186, 19.99645875583067 64.0212472858241, 23.802485499953963 63.84226936504646 M23.87108817425505 64.26501888534098 C23.93176979925571 70.07084171802744, 24.30925535470123 76.3437911243341, 23.9965744442039 84.18533741545123 M23.84940775738257 64.13073017330042 C23.906539015834948 70.91553502549938, 24.07925878145664 77.5125841083143, 23.8428478287109 84.16427682619442 M23.71528253110625 83.63154203263174 C17.242576870438103 83.64458962669028, 9.763800112473925 84.10667719991636, 4.055375894819976 84.24814153590373 M24.016414944547414 84.08641813226353 C16.841097144048415 83.9062885272958, 9.295146868132957 84.15973410393023, 4.129090386541213 83.87734882405626 M4.170881513280662 84.22236188938378 C3.9412833416975364 78.93888319332628, 4.152366733516983 74.29283899139998, 3.923960274875996 63.618707023409954 M3.9750715016780718 84.14886381197549 C3.8475266826168957 79.0012577714791, 4.031141709848506 73.82465278460533, 3.8637325010376005 63.92504495367263" style="stroke: white; stroke-width: 1px; fill: none;"></path></g><g><path d="M24.159024861476873 64.34621935418454 L64.17606675612636 63.8732740541426 L63.89982980621759 84.34254354463893 L24.08157915858091 83.72537482810104" style="stroke: none; stroke-width: 0px; fill: rgb(166, 40, 84);"></path><path d="M23.987943624126274 63.83291981739582 C31.74536702198595 64.38717314256073, 40.477183975517065 63.935571325514694, 64.12661057773816 63.894831143383236 M24.193693774463345 64.17231728495463 C37.78555113061456 63.93167461187285, 51.35801911175791 63.839434772561425, 64.17648003100132 64.06699121608223 M63.79743996408035 64.18223368589793 C64.36654833663844 68.81841858879184, 64.40053704057146 73.47408937634401, 63.632148598435855 83.95997208409783 M63.86975650333319 64.17219748618004 C64.01787559448057 71.29900766513846, 64.00377635711288 78.96530196278903, 64.11465141576878 83.852203515289 M63.64428361314055 83.85692928081107 C51.912338101211034 83.94496240879172, 39.37020493879323 84.02439766603172, 23.633117228149004 84.240919340531 M63.82658305718389 83.83393826626686 C50.45222612570482 83.73875040055094, 37.02392684821442 84.02579178691606, 24.07507718285387 84.10338150307744 M23.901925844134144 83.80236165549633 C24.373764921343902 79.64651861631418, 24.376777087140457 74.28588773473173, 24.391855021594377 64.10526181386955 M23.81232066687182 83.83683909722934 C24.067023053282462 77.04078320291683, 23.80951937543318 70.6178887904388, 23.956407538672988 63.91105995070265" style="stroke: white; stroke-width: 1px; fill: none;"></path></g><g><path d="M63.67722181849125 64.16752646018702 L84.38192101363964 63.61849848429219 L83.69532404375252 84.13796128260178 L64.06103189521086 83.63072049449767" style="stroke: none; stroke-width: 0px; fill: rgb(166, 40, 84);"></path><path d="M64.38544184152035 63.66275479218851 C70.56190744001381 63.7370010090631, 76.8729928398299 64.04365451992753, 83.77289354871421 63.89004959465773 M64.19953382255329 64.02751823376195 C71.55584090075611 64.18063425782876, 79.15288282533936 64.01110413450108, 83.80303836084242 63.808499347171576 M83.76648825654199 63.68872175820786 C84.26989256344645 71.71274423988359, 84.19594734743585 78.99669252531892, 84.34698807096608 84.28413468322292 M84.18759237886869 63.909844826837265 C83.88140889871947 71.2252957162201, 83.88870465848528 78.20818858048474, 83.84351802814784 83.91348543489099 M84.27005998310314 84.32396980811708 C78.18282433917254 83.96009864919006, 72.73673759558874 84.06561386812565, 63.69520116968067 83.64211838899442 M83.97012271668089 84.14476519225924 C78.80037311330258 84.06588052297371, 73.57355646665034 83.88472864503385, 64.0765743583092 83.90164981186524 M64.22507917832998 83.9950871006211 C64.33018717176226 77.66829948251218, 64.0611197429679 70.57305426326113, 64.137054217628 64.07456762189372 M64.152582411005 84.01876142472057 C64.04400332135425 76.761149550313, 63.78844258434308 69.29792662498379, 64.10176501479332 64.05758518925249" style="stroke: white; stroke-width: 1px; fill: none;"></path></g><g><path d="M4.399449061874649 83.9998928435104 L43.90847731705247 83.81504923807162 L43.79220202989646 103.67623746026784 L3.9123369794048557 103.86901296181776" style="stroke: none; stroke-width: 0px; fill: rgb(166, 40, 84);"></path><path d="M3.7341768682397127 83.87102250445474 C19.107694609084028 83.6138440112995, 34.55441363729031 84.06611159615755, 43.67054661731097 84.1448796667023 M4.1612280015971015 84.10419332409434 C17.086931109129896 83.92810552564843, 30.423386434352143 84.09627575209403, 43.832595393140366 84.06747290310702 M43.998244691937074 84.03148141266618 C43.78227229930657 89.26286123115558, 43.97301567426957 95.08444697059223, 43.72641997514939 103.82963616460698 M44.13029475493286 84.01718091718412 C43.95625381968047 89.07800936915963, 44.11020160137747 94.23938371223569, 44.08010659993852 103.99931719012353 M43.73920327814849 103.71868388076862 C30.566199606313177 104.08250500690566, 17.857867658807923 104.31583520861851, 4.28509176164499 103.63147289292573 M44.12565263903473 104.16559014356035 C28.525127702883488 103.74505967787226, 12.737301086576878 104.00414930228648, 3.90717316810426 103.90846619796457 M4.316975330959966 103.99213606539034 C3.8306610453227656 97.0019907480415, 3.9476500392579275 90.01321293540333, 3.9381504377180256 83.74235824531955 M4.097885467705918 104.17319000161355 C3.799225908134238 99.90893906067639, 3.7740212057763918 95.8036575314632, 3.9431943349260363 84.1473138289746" style="stroke: white; stroke-width: 1px; fill: none;"></path></g><g><path d="M4.2725823795642786 104.16303913330496 L43.810693907934336 104.31722980053627 L44.30524567482373 123.70914892572063 L3.891784069967017 123.8653950692714" style="stroke: none; stroke-width: 0px; fill: rgb(166, 40, 84);"></path><path d="M4.05987984707284 104.2606045758207 C15.898304676301061 103.78520264306023, 27.24480587737203 103.9332374096869, 43.70552840513417 103.64860876773315 M4.118537051206014 104.18940866945798 C15.095215040110052 104.08000925136778, 26.348000809808923 104.0946948348305, 44.197050468794636 104.15423109361892 M43.7049022196704 104.07770993539035 C43.80388390938113 111.2290920772031, 44.21296843980016 118.15080199575462, 44.22135934602319 124.36104008036874 M43.81749070327791 104.08358575306819 C44.09929354694628 108.73951009473967, 43.93093261703098 113.33010155454069, 44.09996868776819 124.06902615891737 M44.24730960181062 123.78866133071742 C34.768004216754925 124.44051960070608, 25.936198133026867 124.08608411287321, 4.339502194339678 123.71041100961014 M43.892702802391995 124.14002842688917 C29.89121896778569 124.00085796354492, 16.17857801036548 124.08084398164291, 3.8070423158314357 123.91250224420234 M3.9699460775906665 123.74460376217517 C4.3030008774988024 117.85386884977223, 3.968360722096652 112.48968417422368, 4.0668921610826345 103.94740405016887 M4.101801159970993 124.07957604299236 C3.9541295599882638 118.12571765890831, 4.057501224866942 112.56139419199589, 4.020059290679237 103.95075779204038" style="stroke: white; stroke-width: 1px; fill: none;"></path></g><g><path d="M44.11975196078382 103.83051512864844 L63.64807011423077 104.06978173975381 L64.36794847734909 124.38474690299157 L43.643164968984266 124.29037556553897" style="stroke: none; stroke-width: 0px; fill: rgb(166, 40, 84);"></path><path d="M44.33645672550378 103.99932102147052 C51.212887954394084 104.0395362639934, 58.47083428988681 103.97900428968512, 64.17958631311745 104.18462700983969 M43.926308079769264 104.07307240551447 C52.10994233913676 104.02638028756056, 59.896617616761944 103.99076120353259, 64.13122040143108 104.00779337271014 M64.22051516622726 103.8956585511149 C64.37873835526257 109.74600782640275, 63.740711406261724 114.42058375808767, 64.10763969331106 123.90638142182539 M63.95328647527304 103.85448078145672 C64.11315567033316 108.73033185395401, 63.88607332621763 113.15841957699543, 63.967072826302996 124.08717127596786 M63.804385601186546 123.69994468308794 C59.321817005809564 123.94989137597372, 55.040699548279704 124.3716678990088, 44.19414428070782 124.32637886174487 M63.84622985393824 124.0403196679104 C56.57881228466288 124.19208290040879, 48.82585796647635 123.94528988580059, 43.95598353624096 124.077080805109 M44.23516675399538 124.12834903493744 C43.96517031203831 118.10399501266023, 43.68532211477637 112.64552050576918, 44.20934450509216 104.12571346955767 M44.15146629465384 123.94127701715679 C44.146921144500844 119.80430954499997, 43.89108353257219 115.75554302757209, 44.132973234536024 103.82654246871692" style="stroke: white; stroke-width: 1px; fill: none;"></path></g><g><path d="M64.36226827520589 104.24079097388142 L84.0229533140068 104.32647063882084 L84.05983328578182 124.34557250649385 L64.2111365040799 123.97887256917475" style="stroke: none; stroke-width: 0px; fill: rgb(166, 40, 84);"></path><path d="M64.27272560929569 104.19023688841663 C67.90690741730391 103.76451787635537, 71.9385347755434 104.15516057686243, 83.78056988610783 103.65932634700738 M64.09957170644569 104.18404683456411 C69.29374228250059 104.0055772771559, 74.70449981689724 104.01315089250497, 83.84204333221587 104.16745996501116 M83.62068019546845 104.01667733993686 C84.37777993938549 109.5383535536111, 84.32956632200349 115.47247914932856, 84.23753505090284 123.83368237876293 M84.12706455992497 103.84397748132761 C84.15391971668821 108.93173884494057, 83.94741916218689 114.13998101270903, 84.151269633408 124.17374010148818 M84.19200161156363 124.11020753698936 C76.91228518428254 123.86402587907374, 69.7645589592365 123.7891076094282, 63.86440884337479 123.79257237157557 M84.18481443546585 124.10293607831943 C78.81596934896255 123.83049646150864, 73.38666111681032 124.1096927496246, 64.03396193226928 124.00014634130996 M63.64253819422793 123.69620702646489 C64.35885171071502 118.47641228054563, 63.9174750492167 112.95723562737527, 63.66199235289747 103.7068984372226 M64.19069899391998 123.98434405351844 C63.993790138452574 119.42667815600548, 63.96578826817534 115.02331676666316, 64.0923182327272 104.18397936052584" style="stroke: white; stroke-width: 1px; fill: none;"></path></g><g><path d="M4.256899168431952 123.79743770292865 L43.96302916996259 123.77489478168347 L43.69914532871792 143.6838344185604 L4.287871254451985 144.36579650360886" style="stroke: none; stroke-width: 0px; fill: rgb(166, 40, 84);"></path><path d="M4.367711559935735 123.65662643474455 C14.075092627831019 123.72750150098278, 23.232998711501867 124.19385939352625, 43.674014590505315 124.08295269080949 M4.115616935033559 124.08415587500352 C15.588073081336038 124.18831324016297, 27.123426221165982 124.00900354408964, 44.17590115388837 123.8744822977204 M44.24900106519747 123.8753781707749 C43.795446587580024 130.8096043263046, 43.63010860363485 137.11303709571357, 44.29593135173307 143.86514015455487 M43.84041127917147 124.00375321534815 C44.137716024465355 129.42660594579294, 44.09605629111612 134.700550739963, 43.84740120243553 143.90618149240996 M44.12073285331902 143.87015204482358 C29.34619001604956 144.020612415529, 14.066338450085242 144.06164487681633, 3.8105199103079492 144.0958675275065 M43.883422435472916 144.0281643506308 C35.3796308302961 144.1834897088359, 26.858296334172927 144.10396536153297, 4.054925514402095 144.06924318889523 M3.765999642024237 144.3980708185335 C3.7548759063609314 139.08058072773358, 3.9756242607477774 133.91759808076984, 3.645085058720228 123.96959866903921 M3.869597227403942 144.047015241991 C3.8452122775916533 138.66791673518188, 4.074606444584889 133.2671946764656, 4.019707280488476 124.19081407136719" style="stroke: white; stroke-width: 1px; fill: none;"></path></g><g><path d="M43.637272213423046 123.7736048181288 L64.12650735889522 124.3682777272828 L63.80398334250023 144.12398944330985 L44.02598694435198 143.84939655877236" style="stroke: none; stroke-width: 0px; fill: rgb(166, 40, 84);"></path><path d="M43.69871951246298 124.26274449153024 C49.93833250924047 124.2778845117328, 55.343816748529306 124.37664385393839, 63.81358151761212 124.18922365030001 M43.81776830846405 124.1149125212996 C50.17336063554455 123.86615689625417, 56.08952774214548 124.01147234591043, 63.980078050080756 124.10987743841677 M63.71249388135031 123.69816776637873 C64.09586258834307 131.38501447433705, 64.17532208770751 139.21897356184283, 63.86371290925673 143.91316549315948 M63.991546246683285 123.95041054249612 C63.84622005072914 131.2011229154561, 63.99432942013735 138.61387606743818, 63.90335213357742 144.1432747386412 M63.70120725113809 144.24987033304473 C59.07444928565655 144.23175905115932, 54.53003986448674 143.84405723792096, 43.97540762597631 144.14041736439518 M64.1057793567934 144.01211469620424 C57.847690736127085 143.82431770298606, 51.64349318402677 144.18118508569643, 44.07989570672282 144.08676876384322 M43.66086682804159 143.98686201821246 C43.85811966902888 138.19529005314533, 43.64958296119049 132.32569104536412, 43.760349629125095 123.96898801079772 M44.092524115026066 144.03892113712172 C43.781121000771186 137.70445857744713, 43.81181976958006 131.01251695464708, 43.90988145125785 124.04391304808517" style="stroke: white; stroke-width: 1px; fill: none;"></path></g></g><text font-family="Oswald" font-size="100" x="170" y="100" fill="black">ChartDN</text></svg>